<?xml version="1.0" standalone="no"?>
  <!DOCTYPE svg PUBLIC "-//W3C//DTD SVG 1.1//EN" "http://www.w3.org/Graphics/SVG/1.1/DTD/svg11.dtd" >
  <svg>
  <metadata>
  Created by font-carrier
  </metadata>
  <defs>
  <font id="AGAvantGardeCyrBook" horiz-adv-x="4809" vert-adv-y="4809" >
    <font-face
      
      font-family="AGAvantGardeCyr"
      
      font-weight="400"
      
      font-stretch="normal"
      
      units-per-em="4096"
      
      ascent="3076"
      
      descent="-897"
      
    />
      <missing-glyph />

      

      
      <glyph glyph-name="unia5" unicode="&#xa5;" d="M512 0L512 2560L2560 2560L2560 0L512 0M2494 66L2494 2494L578 2494L578 66L2494 66Z"  horiz-adv-x="3072" vert-adv-y="4096"  />

      
      <glyph glyph-name="unia6" unicode="&#xa6;" d="M512 0L512 2560L2560 2560L2560 0L512 0M2494 66L2494 2494L578 2494L578 66L2494 66Z"  horiz-adv-x="3072" vert-adv-y="4096"  />

      
      <glyph glyph-name="uniaa" unicode="&#xaa;" d="M512 0L512 2560L2560 2560L2560 0L512 0M2494 66L2494 2494L578 2494L578 66L2494 66Z"  horiz-adv-x="3072" vert-adv-y="4096"  />

      
      <glyph glyph-name="unib4" unicode="&#xb4;" d="M512 0L512 2560L2560 2560L2560 0L512 0M2494 66L2494 2494L578 2494L578 66L2494 66Z"  horiz-adv-x="3072" vert-adv-y="4096"  />

      
      <glyph glyph-name="uniba" unicode="&#xba;" d="M512 0L512 2560L2560 2560L2560 0L512 0M2494 66L2494 2494L578 2494L578 66L2494 66Z"  horiz-adv-x="3072" vert-adv-y="4096"  />

      
      <glyph glyph-name="uni2015" unicode="&#x2015;" d="M512 0L512 2560L2560 2560L2560 0L512 0M2494 66L2494 2494L578 2494L578 66L2494 66Z"  horiz-adv-x="3072" vert-adv-y="4096"  />

      
      <glyph glyph-name="uni2016" unicode="&#x2016;" d="M512 0L512 2560L2560 2560L2560 0L512 0M2494 66L2494 2494L578 2494L578 66L2494 66Z"  horiz-adv-x="3072" vert-adv-y="4096"  />

      
      <glyph glyph-name="uni2017" unicode="&#x2017;" d="M512 0L512 2560L2560 2560L2560 0L512 0M2494 66L2494 2494L578 2494L578 66L2494 66Z"  horiz-adv-x="3072" vert-adv-y="4096"  />

      
      <glyph glyph-name="uni201B" unicode="&#x201B;" d="M512 0L512 2560L2560 2560L2560 0L512 0M2494 66L2494 2494L578 2494L578 66L2494 66Z"  horiz-adv-x="3072" vert-adv-y="4096"  />

      
      <glyph glyph-name="uni201F" unicode="&#x201F;" d="M512 0L512 2560L2560 2560L2560 0L512 0M2494 66L2494 2494L578 2494L578 66L2494 66Z"  horiz-adv-x="3072" vert-adv-y="4096"  />

      
      <glyph glyph-name="uni2023" unicode="&#x2023;" d="M512 0L512 2560L2560 2560L2560 0L512 0M2494 66L2494 2494L578 2494L578 66L2494 66Z"  horiz-adv-x="3072" vert-adv-y="4096"  />

      
      <glyph glyph-name="uni2024" unicode="&#x2024;" d="M512 0L512 2560L2560 2560L2560 0L512 0M2494 66L2494 2494L578 2494L578 66L2494 66Z"  horiz-adv-x="3072" vert-adv-y="4096"  />

      
      <glyph glyph-name="uni2025" unicode="&#x2025;" d="M512 0L512 2560L2560 2560L2560 0L512 0M2494 66L2494 2494L578 2494L578 66L2494 66Z"  horiz-adv-x="3072" vert-adv-y="4096"  />

      
      <glyph glyph-name="uni2027" unicode="&#x2027;" d="M512 0L512 2560L2560 2560L2560 0L512 0M2494 66L2494 2494L578 2494L578 66L2494 66Z"  horiz-adv-x="3072" vert-adv-y="4096"  />

      
      <glyph glyph-name="uni2028" unicode="&#x2028;" d="M512 0L512 2560L2560 2560L2560 0L512 0M2494 66L2494 2494L578 2494L578 66L2494 66Z"  horiz-adv-x="3072" vert-adv-y="4096"  />

      
      <glyph glyph-name="uni2029" unicode="&#x2029;" d="M512 0L512 2560L2560 2560L2560 0L512 0M2494 66L2494 2494L578 2494L578 66L2494 66Z"  horiz-adv-x="3072" vert-adv-y="4096"  />

      
      <glyph glyph-name="uni202A" unicode="&#x202A;" d="M512 0L512 2560L2560 2560L2560 0L512 0M2494 66L2494 2494L578 2494L578 66L2494 66Z"  horiz-adv-x="3072" vert-adv-y="4096"  />

      
      <glyph glyph-name="uni202B" unicode="&#x202B;" d="M512 0L512 2560L2560 2560L2560 0L512 0M2494 66L2494 2494L578 2494L578 66L2494 66Z"  horiz-adv-x="3072" vert-adv-y="4096"  />

      
      <glyph glyph-name="uni202C" unicode="&#x202C;" d="M512 0L512 2560L2560 2560L2560 0L512 0M2494 66L2494 2494L578 2494L578 66L2494 66Z"  horiz-adv-x="3072" vert-adv-y="4096"  />

      
      <glyph glyph-name="uni202D" unicode="&#x202D;" d="M512 0L512 2560L2560 2560L2560 0L512 0M2494 66L2494 2494L578 2494L578 66L2494 66Z"  horiz-adv-x="3072" vert-adv-y="4096"  />

      
      <glyph glyph-name="uni202E" unicode="&#x202E;" d="M512 0L512 2560L2560 2560L2560 0L512 0M2494 66L2494 2494L578 2494L578 66L2494 66Z"  horiz-adv-x="3072" vert-adv-y="4096"  />

      
      <glyph glyph-name="uni202F" unicode="&#x202F;" d="M512 0L512 2560L2560 2560L2560 0L512 0M2494 66L2494 2494L578 2494L578 66L2494 66Z"  horiz-adv-x="3072" vert-adv-y="4096"  />

      
      <glyph glyph-name="uni2031" unicode="&#x2031;" d="M512 0L512 2560L2560 2560L2560 0L512 0M2494 66L2494 2494L578 2494L578 66L2494 66Z"  horiz-adv-x="3072" vert-adv-y="4096"  />

      
      <glyph glyph-name="uni2032" unicode="&#x2032;" d="M512 0L512 2560L2560 2560L2560 0L512 0M2494 66L2494 2494L578 2494L578 66L2494 66Z"  horiz-adv-x="3072" vert-adv-y="4096"  />

      
      <glyph glyph-name="uni2033" unicode="&#x2033;" d="M512 0L512 2560L2560 2560L2560 0L512 0M2494 66L2494 2494L578 2494L578 66L2494 66Z"  horiz-adv-x="3072" vert-adv-y="4096"  />

      
      <glyph glyph-name="uni2034" unicode="&#x2034;" d="M512 0L512 2560L2560 2560L2560 0L512 0M2494 66L2494 2494L578 2494L578 66L2494 66Z"  horiz-adv-x="3072" vert-adv-y="4096"  />

      
      <glyph glyph-name="uni2035" unicode="&#x2035;" d="M512 0L512 2560L2560 2560L2560 0L512 0M2494 66L2494 2494L578 2494L578 66L2494 66Z"  horiz-adv-x="3072" vert-adv-y="4096"  />

      
      <glyph glyph-name="uni2036" unicode="&#x2036;" d="M512 0L512 2560L2560 2560L2560 0L512 0M2494 66L2494 2494L578 2494L578 66L2494 66Z"  horiz-adv-x="3072" vert-adv-y="4096"  />

      
      <glyph glyph-name="uni2037" unicode="&#x2037;" d="M512 0L512 2560L2560 2560L2560 0L512 0M2494 66L2494 2494L578 2494L578 66L2494 66Z"  horiz-adv-x="3072" vert-adv-y="4096"  />

      
      <glyph glyph-name="uni2038" unicode="&#x2038;" d="M512 0L512 2560L2560 2560L2560 0L512 0M2494 66L2494 2494L578 2494L578 66L2494 66Z"  horiz-adv-x="3072" vert-adv-y="4096"  />

      
      <glyph glyph-name="uni21" unicode="&#x21;" d="M455 516L758 516L758 0L455 0L455 516M455 3027L758 3027L758 791L455 791L455 3027Z"  horiz-adv-x="1208" vert-adv-y="4096"  />

      
      <glyph glyph-name="uni22" unicode="&#x22;" d="M303 3027L516 3027L516 2101L303 2101L303 3027M758 3027L971 3027L971 2101L758 2101L758 3027Z"  horiz-adv-x="1266" vert-adv-y="4096"  />

      
      <glyph glyph-name="uni23" unicode="&#x23;" d="M631 1024L20 1024L86 1262L700 1262L848 1765L238 1765L303 2003L922 2003L1221 3027L1393 3027L1098 2003L1462 2003L1765 3027L1933 3027L1634 2003L2249 2003L2183 1765L1565 1765L1417 1262L2032 1262L1962 1024L1343 1024L1044 0L868 0L1171 1024L803 1024L500 0L328 0L631 1024M1245 1262L1389 1765L1020 1765L872 1262L1245 1262Z"  horiz-adv-x="2269" vert-adv-y="4096"  />

      
      <glyph glyph-name="uni24" unicode="&#x24;" d="M1004 119Q821 149 659.50 257.50Q498 366 402.50 531Q307 696 307 881L307 930L594 930Q594 775 667 649Q740 523 864.50 452Q989 381 1139 381Q1355 381 1513 534Q1671 687 1671 901Q1671 1157 1529.50 1283Q1388 1409 1118 1483Q752 1586 602 1737Q401 1944 401 2253Q401 2527 567 2723.50Q733 2920 1004 2970L1004 3310L1270 3310L1270 2970Q1460 2943 1609.50 2840.50Q1759 2738 1843 2577.50Q1927 2417 1933 2224L1647 2224Q1644 2433 1504.50 2570Q1365 2707 1151 2707Q975 2707 852 2605Q763 2531 727.50 2444.50Q692 2358 692 2232Q692 2078 755 1986Q818 1894 918 1846Q1018 1798 1184 1749Q1365 1696 1497.50 1638Q1630 1580 1729 1483Q1843 1372 1902.50 1221Q1962 1070 1962 905Q1962 714 1870 536Q1778 358 1619.50 244.50Q1461 131 1270 119L1270-221L1004-221L1004 119Z"  horiz-adv-x="2269" vert-adv-y="4096"  />

      
      <glyph glyph-name="uni25" unicode="&#x25;" d="M2101 3027L2396 3027L1036 0L741 0L2101 3027M1479 2359Q1479 2169 1382 2003.50Q1285 1838 1121 1740Q957 1642 770 1642Q580 1642 414.50 1740.50Q249 1839 151 2006.50Q53 2174 53 2367Q53 2566 147.50 2728.50Q242 2891 406.50 2983.50Q571 3076 774 3076Q972 3076 1134 2980Q1296 2884 1387.50 2719Q1479 2554 1479 2359M3080 651Q3080 461 2982.50 298.50Q2885 136 2720.50 41.50Q2556-53 2367-53Q2177-53 2011 43Q1845 139 1748 301.50Q1651 464 1651 655Q1651 853 1746 1021Q1841 1189 2007.50 1286.50Q2174 1384 2372 1384Q2522 1384 2651.50 1326Q2781 1268 2878 1164.50Q2975 1061 3027.50 929.50Q3080 798 3080 651M344 2363Q344 2188 469 2060.50Q594 1933 766 1933Q946 1933 1067 2064.50Q1188 2196 1188 2380Q1188 2549 1067.50 2667Q947 2785 774 2785Q585 2785 464.50 2667Q344 2549 344 2363M1942 651Q1942 477 2067.50 357.50Q2193 238 2367 238Q2548 238 2668.50 363.50Q2789 489 2789 668Q2789 841 2666.50 967.50Q2544 1094 2372 1094Q2247 1094 2149 1036Q2051 978 1996.50 877.50Q1942 777 1942 651Z"  horiz-adv-x="3174" vert-adv-y="4096"  />

      
      <glyph glyph-name="uni26" unicode="&#x26;" d="M2806 1966L2245 897L3011 152L2793-53L2101 623Q1997 412 1869 264Q1741 116 1566.50 31.50Q1392-53 1171-53Q918-53 701 73.50Q484 200 358.50 416Q233 632 233 885Q233 1186 423.50 1411Q614 1636 913 1786Q752 1947 673 2087Q594 2227 594 2417Q594 2551 652 2670Q710 2789 812.50 2881Q915 2973 1043.50 3024Q1172 3075 1303 3076Q1500 3075 1671 2981Q1842 2887 1944.50 2721.50Q2047 2556 2048 2359Q2045 2118 1876 1945.50Q1707 1773 1454 1679L2028 1114L2466 1966L2806 1966M1016 1483Q792 1372 664.50 1225.50Q537 1079 537 860Q537 700 620.50 555.50Q704 411 843.50 324.50Q983 238 1147 238Q1410 238 1570.50 396Q1731 554 1876 840L1147 1552L1016 1483M1319 2785Q1145 2785 1021 2676Q897 2567 897 2396Q897 2304 947 2217.50Q997 2131 1062 2063.50Q1127 1996 1229 1901Q1745 2081 1745 2400Q1745 2558 1612 2671.50Q1479 2785 1319 2785Z"  horiz-adv-x="3101" vert-adv-y="4096"  />

      
      <glyph glyph-name="uni27" unicode="&#x27;" d="M303 3027L508 3027L508 2101L303 2101L303 3027Z"  horiz-adv-x="811" vert-adv-y="4096"  />

      
      <glyph glyph-name="uni28" unicode="&#x28;" d="M1372 2765Q1119 2620 929 2375.50Q739 2131 638 1835.50Q537 1540 537 1245Q537 1035 596 813Q655 591 766.50 385.50Q878 180 1031.50 16Q1185-148 1372-254L1372-520Q1157-463 944.50-274Q732-85 582 135Q233 642 233 1245Q233 1841 557 2343Q714 2582 928 2776Q1142 2970 1372 3027L1372 2765Z"  horiz-adv-x="1511" vert-adv-y="4096"  />

      
      <glyph glyph-name="uni29" unicode="&#x29;" d="M139-254Q325-149 482 17.50Q639 184 748.50 386Q858 588 916.50 808.50Q975 1029 975 1245Q975 1543 875 1837.50Q775 2132 585 2374.50Q395 2617 139 2761L139 3027Q378 2961 587 2773Q796 2585 954 2343Q1120 2092 1199 1823.50Q1278 1555 1278 1245Q1278 636 930 135Q779-86 567.50-274.50Q356-463 139-520L139-254Z"  horiz-adv-x="1511" vert-adv-y="4096"  />

      
      <glyph glyph-name="uni2a" unicode="&#x2a;" d="M1475 2384L1065 2384L1282 2023L1094 1909L872 2277L659 1909L463 2023L684 2384L262 2384L262 2593L684 2593L463 2961L659 3076L872 2707L1094 3076L1282 2961L1065 2593L1475 2593L1475 2384Z"  horiz-adv-x="1741" vert-adv-y="4096"  />

      
      <glyph glyph-name="uni2b" unicode="&#x2b;" d="M1085 2269L1397 2269L1397 1397L2273 1397L2273 1085L1397 1085L1397 201L1085 201L1085 1085L209 1085L209 1397L1085 1397L1085 2269Z"  horiz-adv-x="2482" vert-adv-y="4096"  />

      
      <glyph glyph-name="uni2c" unicode="&#x2c;" d="M733 516L1036 516L676-274L373-274L733 516Z"  horiz-adv-x="1135" vert-adv-y="4096"  />

      
      <glyph glyph-name="uni2d" unicode="&#x2d;" d="M1237 1368L1237 1094L127 1094L127 1368L1237 1368Z"  horiz-adv-x="1360" vert-adv-y="4096"  />

      
      <glyph glyph-name="uni2e" unicode="&#x2e;" d="M414 516L717 516L717 0L414 0L414 516Z"  horiz-adv-x="1135" vert-adv-y="4096"  />

      
      <glyph glyph-name="uni2f" unicode="&#x2f;" d="M1348 3027L1626 3027L434-524L164-524L1348 3027Z"  horiz-adv-x="1790" vert-adv-y="4096"  />

      
      <glyph glyph-name="uni30" unicode="&#x30;" d="M123 1937Q123 2189 172 2368.50Q221 2548 360 2716Q456 2833 579 2913Q702 2993 845.50 3034.50Q989 3076 1139 3076Q1593 3076 1884 2753Q2150 2460 2150 1937L2150 1151Q2150 876 2108 684Q2066 492 1929 319Q1630-53 1139-53Q657-53 360 299Q213 478 168 673.50Q123 869 123 1151L123 1937M1847 1868Q1847 2295 1716 2486Q1627 2622 1468 2703.50Q1309 2785 1139 2785Q958 2785 786 2690.50Q614 2596 528 2441Q426 2251 426 1868L426 1200Q426 977 449.50 814.50Q473 652 557 528Q764 238 1139 238Q1550 238 1745 573Q1847 748 1847 1200L1847 1868Z"  horiz-adv-x="2269" vert-adv-y="4096"  />

      
      <glyph glyph-name="uni31" unicode="&#x31;" d="M1147 2753L635 2753L635 3027L1450 3027L1450 0L1147 0L1147 2753Z"  horiz-adv-x="2269" vert-adv-y="4096"  />

      
      <glyph glyph-name="uni32" unicode="&#x32;" d="M135 270L1290 1384Q1520 1605 1644.50 1774.50Q1769 1944 1769 2154Q1769 2330 1679 2475Q1589 2620 1436 2702.50Q1283 2785 1106 2785Q938 2785 787.50 2700Q637 2615 549 2470Q463 2322 463 2048L160 2048Q160 2348 283.50 2582.50Q407 2817 628.50 2946.50Q850 3076 1130 3076Q1519 3076 1786 2810Q2073 2523 2073 2159Q2073 1953 1995 1783Q1917 1613 1805 1486.50Q1693 1360 1491 1167L553 274L2056 274L2056 0L135 0L135 270Z"  horiz-adv-x="2269" vert-adv-y="4096"  />

      
      <glyph glyph-name="uni33" unicode="&#x33;" d="M340 2273Q340 2495 437 2679.50Q534 2864 710.50 2970Q887 3076 1114 3076Q1322 3076 1495.50 2972Q1669 2868 1768.50 2689.50Q1868 2511 1868 2302Q1868 2121 1791 1988Q1714 1855 1556 1733Q1705 1666 1821.50 1538.50Q1938 1411 2001 1250Q2064 1089 2064 922Q2064 658 1933.50 433Q1803 208 1579 77.50Q1355-53 1090-53Q829-53 609 82.50Q389 218 262 447.50Q135 677 135 946L438 946Q452 697 541 557Q632 415 776.50 326.50Q921 238 1081 238Q1269 238 1424.50 328.50Q1580 419 1670.50 576Q1761 733 1761 918Q1761 1129 1635.50 1304.50Q1510 1480 1311 1548Q1257 1566 1185.50 1575Q1114 1584 1030 1586Q946 1588 901 1589L901 1860L1004 1851Q1156 1851 1284 1902Q1412 1953 1488.50 2060Q1565 2167 1565 2327Q1565 2459 1502 2564Q1439 2669 1329.50 2727Q1220 2785 1090 2785Q889 2785 766 2632.50Q643 2480 643 2273L340 2273Z"  horiz-adv-x="2269" vert-adv-y="4096"  />

      
      <glyph glyph-name="uni34" unicode="&#x34;" d="M1581 553L49 553L49 827L1516 3027L1884 3027L1884 827L2159 827L2159 553L1884 553L1884 0L1581 0L1581 553M1581 2609L406 827L1581 827L1581 2609Z"  horiz-adv-x="2269" vert-adv-y="4096"  />

      
      <glyph glyph-name="uni35" unicode="&#x35;" d="M545 3027L1913 3027L1913 2753L791 2753L639 1917Q887 2060 1151 2060Q1430 2060 1663 1915Q1896 1770 2029.50 1528Q2163 1286 2163 1008Q2163 727 2030 482Q1897 237 1663.50 92Q1430-53 1147-53Q867-53 636 80Q405 213 266 443.50Q127 674 106 950L410 950Q422 762 518.50 597Q615 432 774.50 335Q934 238 1130 238Q1335 238 1502.50 341.50Q1670 445 1765 621Q1860 797 1860 999Q1860 1199 1766 1377.50Q1672 1556 1506 1662.50Q1340 1769 1135 1769Q957 1769 794.50 1682.50Q632 1596 512 1450L270 1536L545 3027Z"  horiz-adv-x="2269" vert-adv-y="4096"  />

      
      <glyph glyph-name="uni36" unicode="&#x36;" d="M1561 3027L844 1962Q997 2056 1204 2056Q1406 2056 1582.50 1968.50Q1759 1881 1891.50 1728.50Q2024 1576 2095.50 1388.50Q2167 1201 2167 1004Q2167 807 2088.50 612.50Q2010 418 1872 266Q1571-53 1126-53Q850-53 613.50 91Q377 235 239.50 477.50Q102 720 102 999Q102 1186 151 1338.50Q200 1491 261.50 1594Q323 1697 492 1954L1208 3027L1561 3027M406 1020Q406 813 499 633Q592 453 759 345.50Q926 238 1130 238Q1329 238 1498.50 342Q1668 446 1766 621.50Q1864 797 1864 995Q1864 1199 1768.50 1376Q1673 1553 1503.50 1659Q1334 1765 1130 1765Q930 1765 764 1664Q598 1563 502 1391Q406 1219 406 1020Z"  horiz-adv-x="2269" vert-adv-y="4096"  />

      
      <glyph glyph-name="uni37" unicode="&#x37;" d="M1688 2753L262 2753L262 3027L2007 3027L2007 2753L770 0L442 0L1688 2753Z"  horiz-adv-x="2269" vert-adv-y="4096"  />

      
      <glyph glyph-name="uni38" unicode="&#x38;" d="M332 2298Q332 2520 441.50 2699Q551 2878 738 2977Q925 3076 1147 3076Q1366 3076 1547 2969.50Q1728 2863 1832.50 2679Q1937 2495 1937 2277Q1937 2089 1841 1926.50Q1745 1764 1577 1692Q1810 1590 1953.50 1369.50Q2097 1149 2097 893Q2097 697 2019.50 522.50Q1942 348 1806.50 219Q1671 90 1492.50 18.50Q1314-53 1122-53Q869-53 648.50 74Q428 201 300 417Q172 633 172 889Q172 1047 236.50 1213Q301 1379 418 1507.50Q535 1636 684 1692Q514 1776 423 1937.50Q332 2099 332 2298M475 872Q475 699 562.50 553Q650 407 800 322.50Q950 238 1122 238Q1306 238 1460 323.50Q1614 409 1704 559.50Q1794 710 1794 893Q1794 1073 1702.50 1218.50Q1611 1364 1457.50 1446Q1304 1528 1126 1528Q948 1528 798 1440.50Q648 1353 561.50 1201.50Q475 1050 475 872M635 2314Q635 2101 782 1960Q929 1819 1143 1819Q1272 1819 1384.50 1885Q1497 1951 1565.50 2064Q1634 2177 1634 2302Q1634 2502 1491 2643.50Q1348 2785 1147 2785Q941 2785 788 2650.50Q635 2516 635 2314Z"  horiz-adv-x="2269" vert-adv-y="4096"  />

      
      <glyph glyph-name="uni39" unicode="&#x39;" d="M709 0L1425 1061Q1272 967 1061 967Q797 967 576.50 1117.50Q356 1268 229 1513Q102 1758 102 2019Q102 2219 181 2415Q260 2611 397 2757Q698 3076 1143 3076Q1354 3076 1539.50 2993.50Q1725 2911 1866 2765.50Q2007 2620 2087 2428.50Q2167 2237 2167 2028Q2167 1841 2117 1686.50Q2067 1532 2007 1431Q1947 1330 1778 1073L1061 0L709 0M1139 1270Q1347 1270 1512 1370Q1677 1470 1770.50 1638.50Q1864 1807 1864 2003Q1864 2157 1811.50 2299Q1759 2441 1660.50 2550.50Q1562 2660 1428.50 2722.50Q1295 2785 1139 2785Q940 2785 771 2681.50Q602 2578 504 2403.50Q406 2229 406 2032Q406 1836 506 1659.50Q606 1483 776 1376.50Q946 1270 1139 1270Z"  horiz-adv-x="2269" vert-adv-y="4096"  />

      
      <glyph glyph-name="uni3a" unicode="&#x3a;" d="M414 516L717 516L717 0L414 0L414 516M414 2089L717 2089L717 1573L414 1573L414 2089Z"  horiz-adv-x="1135" vert-adv-y="4096"  />

      
      <glyph glyph-name="uni3b" unicode="&#x3b;" d="M528 516L831 516L471-274L168-274L528 516M528 2089L831 2089L831 1573L528 1573L528 2089Z"  horiz-adv-x="1135" vert-adv-y="4096"  />

      
      <glyph glyph-name="uni3c" unicode="&#x3c;" d="M2286 451L2286 152L201 1102L201 1364L2286 2314L2286 2015L590 1233L2286 451Z"  horiz-adv-x="2482" vert-adv-y="4096"  />

      
      <glyph glyph-name="uni3d" unicode="&#x3d;" d="M2273 1479L209 1479L209 1786L2273 1786L2273 1479M2273 680L209 680L209 987L2273 987L2273 680Z"  horiz-adv-x="2482" vert-adv-y="4096"  />

      
      <glyph glyph-name="uni3e" unicode="&#x3e;" d="M1892 1233L197 2015L197 2314L2281 1364L2281 1102L197 152L197 451L1892 1233Z"  horiz-adv-x="2482" vert-adv-y="4096"  />

      
      <glyph glyph-name="uni3f" unicode="&#x3f;" d="M1081 516L1384 516L1384 0L1081 0L1081 516M266 2081L266 2167Q266 2337 342 2507.50Q418 2678 545 2802Q825 3076 1237 3076Q1493 3076 1703 2955Q1913 2834 2031.50 2623Q2150 2412 2150 2154Q2150 1945 2056 1801Q1962 1657 1772 1471Q1582 1285 1485.50 1141Q1389 997 1384 791L1081 791Q1081 1236 1507 1618Q1640 1742 1699.50 1806.50Q1759 1871 1803 1968Q1847 2065 1847 2187Q1847 2354 1758 2491Q1669 2628 1521 2706.50Q1373 2785 1208 2785Q1032 2785 882 2691Q732 2597 644.50 2435.50Q557 2274 557 2081L266 2081Z"  horiz-adv-x="2421" vert-adv-y="4096"  />

      
      <glyph glyph-name="uni40" unicode="&#x40;" d="M3195 721Q3067 487 2855 312Q2643 137 2383.50 44Q2124-49 1855-49Q1423-49 1063.50 162Q704 373 497.50 736Q291 1099 291 1528Q291 1950 503 2307Q715 2664 1076 2872Q1437 3080 1860 3080Q2126 3080 2377 2989.50Q2628 2899 2830 2724Q3265 2345 3265 1774Q3265 1360 3023 1020Q2932 892 2822.50 791Q2713 690 2581.50 629.50Q2450 569 2302 569Q2186 569 2084 624Q1982 679 1946 786Q1856 690 1722.50 634Q1589 578 1454 578Q1284 578 1153 661Q1022 744 951.50 885Q881 1026 881 1196Q881 1405 955 1626Q1029 1847 1168 2035.50Q1307 2224 1496.50 2336.50Q1686 2449 1905 2449Q2055 2449 2182 2377.50Q2309 2306 2367 2175L2429 2367L2707 2367L2290 1118Q2236 971 2236 905Q2236 854 2272 820Q2308 786 2359 786Q2486 786 2626 890Q2766 994 2855 1118Q2956 1262 3010 1436Q3064 1610 3064 1790Q3064 2034 2964 2238Q2864 2442 2692 2585Q2520 2728 2301.50 2803.50Q2083 2879 1847 2879Q1475 2879 1165.50 2691.50Q856 2504 678 2186Q500 1868 500 1499Q500 1136 683.50 825Q867 514 1179 333Q1491 152 1855 152Q2068 152 2273 220Q2478 288 2653 416.50Q2828 545 2949 717L3195 721M1987 1204Q2074 1375 2137 1566.50Q2200 1758 2200 1905Q2200 1984 2163.50 2053Q2127 2122 2061 2163Q1995 2204 1913 2204Q1756 2204 1623.50 2108Q1491 2012 1395.50 1860Q1300 1708 1248 1534Q1196 1360 1196 1217Q1196 1060 1281.50 950Q1367 840 1516 840Q1663 840 1787 948Q1911 1056 1987 1204Z"  horiz-adv-x="3551" vert-adv-y="4096"  />

      
      <glyph glyph-name="uni41" unicode="&#x41;" d="M1352 3027L1688 3027L2986 0L2658 0L2220 1016L811 1016L373 0L45 0L1352 3027M2101 1290L1520 2679L930 1290L2101 1290Z"  horiz-adv-x="3031" vert-adv-y="4096"  />

      
      <glyph glyph-name="uni42" unicode="&#x42;" d="M311 3027L1020 3027Q1239 3027 1403 2997.50Q1567 2968 1708 2875Q1872 2768 1968 2593.50Q2064 2419 2064 2224Q2064 1855 1729 1618Q1966 1522 2097 1320.50Q2228 1119 2228 856Q2228 649 2128.50 461.50Q2029 274 1855 164Q1731 88 1600.50 53Q1470 18 1345 10Q1220 2 1024 0L311 0L311 3027M987 274Q1203 274 1353.50 289.50Q1504 305 1626 365Q1755 432 1838 569.50Q1921 707 1921 852Q1921 1045 1820 1190.50Q1719 1336 1544 1397Q1356 1458 934 1458L614 1458L614 274L987 274M942 1733Q1139 1733 1271.50 1749Q1404 1765 1516 1823Q1624 1880 1692.50 1998.50Q1761 2117 1761 2245Q1761 2367 1693.50 2482Q1626 2597 1520 2662Q1419 2721 1287.50 2737Q1156 2753 967 2753L614 2753L614 1733L942 1733Z"  horiz-adv-x="2351" vert-adv-y="4096"  />

      
      <glyph glyph-name="uni43" unicode="&#x43;" d="M2806 2249Q2695 2417 2524.50 2538.50Q2354 2660 2153.50 2722.50Q1953 2785 1749 2785Q1414 2785 1121.50 2609.50Q829 2434 656 2141.50Q483 1849 483 1524Q483 1179 659.50 882.50Q836 586 1134 412Q1432 238 1769 238Q2074 238 2356 389Q2638 540 2818 791L3154 791Q3023 540 2806.50 349Q2590 158 2321 52.50Q2052-53 1769-53Q1442-53 1152 66Q862 185 642.50 400.50Q423 616 301.50 906.50Q180 1197 180 1524Q180 1945 391 2302Q602 2659 962 2867.50Q1322 3076 1745 3076Q2236 3076 2617 2822Q2778 2721 2931.50 2562Q3085 2403 3142 2249L2806 2249Z"  horiz-adv-x="3330" vert-adv-y="4096"  />

      
      <glyph glyph-name="uni44" unicode="&#x44;" d="M311 3027L1126 3027Q1491 3024 1781 2946.50Q2071 2869 2314 2675Q2485 2534 2609.50 2348Q2734 2162 2800.50 1948.50Q2867 1735 2867 1520Q2867 1303 2808.50 1099Q2750 895 2639 715.50Q2528 536 2372 393Q2119 164 1828 82Q1537 0 1147 0L311 0L311 3027M1004 274Q1264 278 1430.50 293.50Q1597 309 1767.50 368.50Q1938 428 2097 553Q2320 728 2440.50 978.50Q2561 1229 2564 1520Q2558 2110 2093 2478Q1867 2654 1621 2703.50Q1375 2753 1004 2753L614 2753L614 274L1004 274Z"  horiz-adv-x="3047" vert-adv-y="4096"  />

      
      <glyph glyph-name="uni45" unicode="&#x45;" d="M311 3027L1966 3027L1966 2753L614 2753L614 1663L1921 1663L1921 1389L614 1389L614 274L1966 274L1966 0L311 0L311 3027Z"  horiz-adv-x="2195" vert-adv-y="4096"  />

      
      <glyph glyph-name="uni46" unicode="&#x46;" d="M311 3027L1847 3027L1847 2753L614 2753L614 1659L1802 1659L1802 1384L614 1384L614 0L311 0L311 3027Z"  horiz-adv-x="1987" vert-adv-y="4096"  />

      
      <glyph glyph-name="uni47" unicode="&#x47;" d="M3404 1397Q3384 1095 3248 827.50Q3112 560 2890 362.50Q2668 165 2386 56Q2104-53 1802-53Q1481-53 1187 67.50Q893 188 664.50 406Q436 624 308 914Q180 1204 180 1528Q180 1825 305.50 2113Q431 2401 647 2613Q1116 3076 1802 3076Q2044 3076 2269.50 3011.50Q2495 2947 2691 2818Q2859 2708 3013 2544.50Q3167 2381 3219 2220L2875 2220Q2720 2481 2423.50 2633Q2127 2785 1802 2785Q1551 2785 1317.50 2699Q1084 2613 901 2445Q713 2274 598 2026Q483 1778 483 1524Q483 1252 588 1016.50Q693 781 879.50 605.50Q1066 430 1307 334Q1548 238 1815 238Q2084 238 2337.50 349Q2591 460 2778 661.50Q2965 863 3039 1122L1348 1122L1348 1397L3404 1397Z"  horiz-adv-x="3572" vert-adv-y="4096"  />

      
      <glyph glyph-name="uni48" unicode="&#x48;" d="M311 3027L614 3027L614 1696L2183 1696L2183 3027L2486 3027L2486 0L2183 0L2183 1421L614 1421L614 0L311 0L311 3027Z"  horiz-adv-x="2798" vert-adv-y="4096"  />

      
      <glyph glyph-name="uni49" unicode="&#x49;" d="M311 3027L614 3027L614 0L311 0L311 3027Z"  horiz-adv-x="926" vert-adv-y="4096"  />

      
      <glyph glyph-name="uni4a" unicode="&#x4a;" d="M1663 852Q1658 774 1653 685.50Q1648 597 1634 526Q1620 455 1587 384.50Q1554 314 1499 246Q1381 98 1212 22.50Q1043-53 852-53Q635-53 451.50 48Q268 149 159.50 326Q51 503 45 717L344 717Q360 504 512 371Q664 238 881 238Q1031 238 1150.50 319Q1270 400 1323 541Q1360 659 1360 942L1360 3027L1663 3027L1663 852Z"  horiz-adv-x="1974" vert-adv-y="4096"  />

      
      <glyph glyph-name="uni4b" unicode="&#x4b;" d="M311 3027L614 3027L614 1286L2011 3027L2396 3027L1200 1552L2396 0L2019 0L1008 1311L614 827L614 0L311 0L311 3027Z"  horiz-adv-x="2421" vert-adv-y="4096"  />

      
      <glyph glyph-name="uni4c" unicode="&#x4c;" d="M311 3027L614 3027L614 274L1868 274L1868 0L311 0L311 3027Z"  horiz-adv-x="1892" vert-adv-y="4096"  />

      
      <glyph glyph-name="uni4d" unicode="&#x4d;" d="M311 3027L778 3027L1884 451L2986 3027L3453 3027L3453 0L3150 0L3150 2691L2011 0L1753 0L614 2691L614 0L311 0L311 3027Z"  horiz-adv-x="3764" vert-adv-y="4096"  />

      
      <glyph glyph-name="uni4e" unicode="&#x4e;" d="M311 3027L721 3027L2417 516L2417 3027L2720 3027L2720 0L2417 0L614 2662L614 0L311 0L311 3027Z"  horiz-adv-x="3031" vert-adv-y="4096"  />

      
      <glyph glyph-name="uni4f" unicode="&#x4f;" d="M3379 1520Q3379 1092 3162.50 729Q2946 366 2576.50 156.50Q2207-53 1778-53Q1359-53 990 155Q621 363 400.50 720.50Q180 1078 180 1499Q180 1929 395.50 2290.50Q611 2652 980 2862Q1349 3072 1778 3072Q2200 3072 2569.50 2864.50Q2939 2657 3159 2300Q3379 1943 3379 1520M1782 2785Q1433 2784 1133 2610.50Q833 2437 658 2141Q483 1845 483 1499Q483 1156 662.50 867Q842 578 1143 408Q1444 238 1782 238Q2043 238 2280.50 337Q2518 436 2697 612.50Q2876 789 2976 1023Q3076 1257 3076 1520Q3076 1862 2898.50 2152Q2721 2442 2421.50 2611.50Q2122 2781 1782 2781L1782 2785Z"  horiz-adv-x="3559" vert-adv-y="4096"  />

      
      <glyph glyph-name="uni50" unicode="&#x50;" d="M311 3027L1106 3027Q1279 3025 1411 3015.50Q1543 3006 1672.50 2971Q1802 2936 1917 2863Q2110 2742 2212 2545.50Q2314 2349 2314 2118Q2314 1668 1970 1417Q1810 1299 1622.50 1260Q1435 1221 1184 1221L614 1221L614 0L311 0L311 3027M1135 1495Q1335 1495 1478 1518Q1621 1541 1745 1618Q1871 1696 1941 1832.50Q2011 1969 2011 2122Q2011 2317 1911.50 2465.50Q1812 2614 1634 2687Q1468 2757 1208 2757Q1174 2757 1105 2755Q1036 2753 1004 2753L614 2753L614 1495L1135 1495Z"  horiz-adv-x="2425" vert-adv-y="4096"  />

      
      <glyph glyph-name="uni51" unicode="&#x51;" d="M3387-53L3351-53Q2982-53 2712 205Q2528 79 2284.50 13Q2041-53 1802-53Q1484-53 1189 64Q894 181 667 391Q440 601 310 885.50Q180 1170 180 1491Q180 1941 397 2304.50Q614 2668 988.50 2872Q1363 3076 1810 3076Q2260 3076 2633.50 2870.50Q3007 2665 3222 2299.50Q3437 1934 3437 1483Q3437 1171 3302 881Q3167 591 2929 373Q3135 225 3322 225L3387 229L3387-53M2318 541Q2017 776 1806 852Q1463 971 1122 971Q864 971 655 885Q778 645 1077 446Q1394 238 1827 238Q2223 238 2478 418L2318 541M1180 1253Q1489 1253 1751.50 1174.50Q2014 1096 2242 951Q2470 806 2720 582Q2845 698 2937.50 843.50Q3030 989 3081.50 1153Q3133 1317 3133 1487Q3133 1850 2956 2148Q2779 2446 2475 2615.50Q2171 2785 1806 2785Q1450 2785 1144.50 2614Q839 2443 661 2145Q483 1847 483 1487Q483 1298 532 1143Q843 1253 1180 1253Z"  horiz-adv-x="3568" vert-adv-y="4096"  />

      
      <glyph glyph-name="uni52" unicode="&#x52;" d="M311 3027L1032 3027Q1319 3027 1520.50 3001Q1722 2975 1892 2879Q2120 2748 2241.50 2528Q2363 2308 2363 2040Q2363 1797 2243.50 1590.50Q2124 1384 1918.50 1260Q1713 1136 1470 1130L2322 0L1946 0L918 1372L1008 1372Q1229 1372 1383.50 1386.50Q1538 1401 1667 1454Q1853 1540 1956.50 1702Q2060 1864 2060 2068Q2060 2226 1984 2373Q1908 2520 1778 2609Q1645 2705 1489 2729Q1333 2753 1094 2753L614 2753L614 0L311 0L311 3027Z"  horiz-adv-x="2486" vert-adv-y="4096"  />

      
      <glyph glyph-name="uni53" unicode="&#x53;" d="M414 848Q419 682 498.50 543Q578 404 716 321Q854 238 1020 238Q1192 238 1335 314.50Q1478 391 1562.50 528.50Q1647 666 1647 836Q1647 959 1590.50 1074Q1534 1189 1438 1266Q1343 1343 1237 1384Q1131 1425 971 1466Q777 1518 658 1563.50Q539 1609 438 1696Q184 1912 184 2261Q184 2500 299 2685.50Q414 2871 610.50 2973.50Q807 3076 1044 3076Q1270 3076 1461.50 2968Q1653 2860 1764.50 2672Q1876 2484 1876 2257L1561 2257Q1551 2409 1477.50 2530Q1404 2651 1283 2718Q1162 2785 1008 2785Q865 2785 745 2713.50Q625 2642 556 2520.50Q487 2399 487 2257Q487 2088 569 1985Q651 1882 773.50 1829Q896 1776 1085 1724Q1324 1658 1438 1614Q1552 1570 1667 1466Q1801 1351 1875.50 1182Q1950 1013 1950 831Q1950 587 1823 384Q1696 181 1484 64Q1272-53 1028-53Q773-53 557.50 62Q342 177 216 384Q90 591 90 848L414 848Z"  horiz-adv-x="2040" vert-adv-y="4096"  />

      
      <glyph glyph-name="uni54" unicode="&#x54;" d="M725 2753L29 2753L29 3027L1716 3027L1716 2753L1028 2753L1028 0L725 0L725 2753Z"  horiz-adv-x="1745" vert-adv-y="4096"  />

      
      <glyph glyph-name="uni55" unicode="&#x55;" d="M614 3027L614 1188Q614 774 754 553Q849 404 1007 321Q1165 238 1343 238Q1504 238 1657 311Q1810 384 1901 512Q2000 645 2034 809.50Q2068 974 2068 1188L2068 3027L2372 3027L2372 1188Q2372 916 2326.50 710.50Q2281 505 2146 332Q2008 148 1794.50 47.50Q1581-53 1343-53Q1113-53 904 41Q695 135 553 307Q454 431 400.50 571.50Q347 712 329 861.50Q311 1011 311 1188L311 3027L614 3027Z"  horiz-adv-x="2683" vert-adv-y="4096"  />

      
      <glyph glyph-name="uni56" unicode="&#x56;" d="M41 3027L373 3027L1434 377L2503 3027L2834 3027L1577 0L1290 0L41 3027Z"  horiz-adv-x="2875" vert-adv-y="4096"  />

      
      <glyph glyph-name="uni57" unicode="&#x57;" d="M41 3027L356 3027L1098 389L1823 3027L2109 3027L2834 393L3576 3027L3891 3027L3027 0L2630 0L1966 2482L1298 0L901 0L41 3027Z"  horiz-adv-x="3932" vert-adv-y="4096"  />

      
      <glyph glyph-name="uni58" unicode="&#x58;" d="M1061 1548L94 3027L446 3027L1249 1815L2048 3027L2400 3027L1421 1548L2462 0L2105 0L1249 1294L389 0L33 0L1061 1548Z"  horiz-adv-x="2494" vert-adv-y="4096"  />

      
      <glyph glyph-name="uni59" unicode="&#x59;" d="M1061 1012L8 3027L340 3027L1212 1327L2085 3027L2417 3027L1364 1012L1364 0L1061 0L1061 1012Z"  horiz-adv-x="2425" vert-adv-y="4096"  />

      
      <glyph glyph-name="uni5a" unicode="&#x5a;" d="M70 270L1556 2753L115 2753L115 3027L1896 3027L1896 2753L414 274L1942 274L1942 0L70 0L70 270Z"  horiz-adv-x="1966" vert-adv-y="4096"  />

      
      <glyph glyph-name="uni5b" unicode="&#x5b;" d="M1282-520Q975-448 741-188Q574-2 516.50 187Q459 376 459 655L459 1839Q459 2100 503 2273.50Q547 2447 688 2626Q802 2766 963.50 2879.50Q1125 2993 1282 3027L1282 2716Q1085 2630 969 2508.50Q853 2387 803.50 2223.50Q754 2060 754 1839L754 705Q754 464 796.50 299.50Q839 135 955 9.50Q1071-116 1282-209L1282-520Z"  horiz-adv-x="1438" vert-adv-y="4096"  />

      
      <glyph glyph-name="uni5c" unicode="&#x5c;" d="M344 3027L635 3027L1901 0L1614 0L344 3027Z"  horiz-adv-x="2478" vert-adv-y="4096"  />

      
      <glyph glyph-name="uni5d" unicode="&#x5d;" d="M156 3027Q466 2948 696 2691Q864 2506 921.50 2316.50Q979 2127 979 1847L979 664Q979 405 932.50 229.50Q886 54 745-123Q638-264 476-377Q314-490 156-520L156-209Q444-90 564 122Q684 334 684 664L684 1794Q684 2021 660 2146.50Q636 2272 537 2413Q410 2607 156 2716L156 3027Z"  horiz-adv-x="1438" vert-adv-y="4096"  />

      
      <glyph glyph-name="uni5e" unicode="&#x5e;" d="M74 737L1118 3027L1356 3027L2408 737L2146 737L1233 2720L336 737L74 737Z"  horiz-adv-x="2482" vert-adv-y="4096"  />

      
      <glyph glyph-name="uni5f" unicode="&#x5f;" d="M0-512L0-274L2048-274L2048-512L0-512Z"  horiz-adv-x="2048" vert-adv-y="4096"  />

      
      <glyph glyph-name="uni60" unicode="&#x60;" d="M1245 2748L1110 2511L303 2945L434 3191L1245 2748Z"  horiz-adv-x="1548" vert-adv-y="4096"  />

      
      <glyph glyph-name="uni61" unicode="&#x61;" d="M2540 0L2249 0L2249 422Q2165 268 2030 161.50Q1895 55 1725.50 1Q1556-53 1380-53Q1118-53 860 65.50Q602 184 393 422Q316 506 244 705.50Q172 905 172 1135Q172 1339 252.50 1544Q333 1749 406 1815Q848 2290 1372 2290Q1649 2290 1888.50 2167.50Q2128 2045 2249 1815L2249 2241L2540 2241L2540 0M475 1110Q475 872 600.50 670.50Q726 469 935 353.50Q1144 238 1380 238Q1609 238 1809.50 357Q2010 476 2129.50 676Q2249 876 2249 1106Q2249 1348 2134 1554.50Q2019 1761 1817 1880Q1615 1999 1372 1999Q1130 1999 924 1880.50Q718 1762 596.50 1557Q475 1352 475 1110Z"  horiz-adv-x="2798" vert-adv-y="4096"  />

      
      <glyph glyph-name="uni62" unicode="&#x62;" d="M258 3027L561 3027L561 1823Q666 2045 905 2167.50Q1144 2290 1409 2290Q1730 2290 2010.50 2138Q2291 1986 2456 1718.50Q2621 1451 2621 1130Q2621 907 2540.50 703.50Q2460 500 2355 385Q2137 138 1919.50 42.50Q1702-53 1438-53Q1179-53 925 62Q671 177 545 385L545 0L258 0L258 3027M778 1729Q541 1491 541 1102Q541 860 661.50 661Q782 462 988.50 350Q1195 238 1438 238Q1676 238 1879.50 357Q2083 476 2200.50 679.50Q2318 883 2318 1122Q2318 1308 2248 1471Q2178 1634 2055.50 1751.50Q1933 1869 1767.50 1934Q1602 1999 1417 1999Q1042 1999 778 1729Z"  horiz-adv-x="2793" vert-adv-y="4096"  />

      
      <glyph glyph-name="uni63" unicode="&#x63;" d="M2486 655Q2335 324 2046 135.50Q1757-53 1397-53Q1067-53 784.50 98.50Q502 250 337 519Q172 788 172 1122Q172 1445 338.50 1713.50Q505 1982 785 2136Q1065 2290 1384 2290Q1620 2290 1843.50 2201Q2067 2112 2236.50 1946Q2406 1780 2490 1561L2150 1561Q2075 1690 1954.50 1790.50Q1834 1891 1687 1945Q1540 1999 1389 1999Q1145 1999 934 1885.50Q723 1772 599 1572Q475 1372 475 1126Q475 885 592.50 679.50Q710 474 914 356Q1118 238 1364 238Q1620 238 1810 341.50Q2000 445 2150 655L2486 655Z"  horiz-adv-x="2650" vert-adv-y="4096"  />

      
      <glyph glyph-name="uni64" unicode="&#x64;" d="M2548 0L2261 0L2261 410Q1931-53 1356-53Q1107-53 879 56Q651 165 418 410Q363 456 304.50 566Q246 676 209 823.50Q172 971 172 1126Q172 1451 335.50 1718.50Q499 1986 776.50 2138Q1054 2290 1376 2290Q1548 2290 1712.50 2240Q1877 2190 2017.50 2089.50Q2158 1989 2245 1851L2245 3027L2548 3027L2548 0M1356 1999Q1121 1999 918 1882.50Q715 1766 595 1565.50Q475 1365 475 1130Q475 890 594.50 684Q714 478 918.50 358Q1123 238 1364 238Q1605 238 1809.50 358Q2014 478 2133.50 684Q2253 890 2253 1130Q2253 1372 2131.50 1571.50Q2010 1771 1803.50 1885Q1597 1999 1356 1999Z"  horiz-adv-x="2806" vert-adv-y="4096"  />

      
      <glyph glyph-name="uni65" unicode="&#x65;" d="M475 1012Q484 806 606 627.50Q728 449 921 343.50Q1114 238 1319 238Q1487 238 1646.50 297.50Q1806 357 1931.50 469Q2057 581 2122 729L2437 729Q2359 506 2192 327.50Q2025 149 1803 48Q1581-53 1348-53Q1026-53 755.50 103Q485 259 328.50 527.50Q172 796 172 1118Q172 1437 328 1707.50Q484 1978 752 2134Q1020 2290 1339 2290Q1602 2290 1837 2175.50Q2072 2061 2241 1855Q2385 1676 2440.50 1477.50Q2496 1279 2503 1012L475 1012M2200 1286Q2161 1484 2036 1646.50Q1911 1809 1728.50 1904Q1546 1999 1343 1999Q1136 1999 949.50 1907.50Q763 1816 637.50 1652.50Q512 1489 475 1286L2200 1286Z"  horiz-adv-x="2662" vert-adv-y="4096"  />

      
      <glyph glyph-name="uni66" unicode="&#x66;" d="M414 1966L66 1966L66 2241L414 2241Q414 2494 513 2671Q612 2848 792.50 2936.50Q973 3025 1212 3027L1270 3027L1270 2753L1212 2753Q975 2753 846 2635.50Q717 2518 717 2286L717 2241L1274 2241L1274 1966L717 1966L717 0L414 0L414 1966Z"  horiz-adv-x="1286" vert-adv-y="4096"  />

      
      <glyph glyph-name="uni67" unicode="&#x67;" d="M2499 319Q2499 16 2454-154.50Q2409-325 2236-512Q2131-627 1985-710Q1839-793 1675.50-835Q1512-877 1352-877Q1108-877 877-773Q646-669 480.50-481.50Q315-294 254-53L549-53Q832-586 1376-586Q1601-586 1802.50-484.50Q2004-383 2109-197Q2175-80 2191.50 28Q2208 136 2208 319L2208 442Q2105 203 1857.50 75Q1610-53 1331-53Q1114-53 900.50 34.50Q687 122 524 274Q349 442 260.50 654.50Q172 867 172 1114Q172 1329 242 1527Q312 1725 385 1806Q528 1986 680.50 2093Q833 2200 989 2245Q1145 2290 1315 2290Q1594 2290 1839 2165Q2084 2040 2208 1806L2208 2241L2499 2241L2499 319M475 1143Q475 896 583.50 688.50Q692 481 889 359.50Q1086 238 1335 238Q1709 238 1950 492Q2025 572 2082.50 675.50Q2140 779 2172 893Q2204 1007 2204 1118Q2204 1365 2085 1567Q1966 1769 1759 1884Q1552 1999 1307 1999Q1080 1999 888.50 1882Q697 1765 586 1567.50Q475 1370 475 1143Z"  horiz-adv-x="2757" vert-adv-y="4096"  />

      
      <glyph glyph-name="uni68" unicode="&#x68;" d="M258 3027L561 3027L561 1917Q623 2035 732 2120Q841 2205 972.50 2247.50Q1104 2290 1241 2290Q1383 2290 1524 2250.50Q1665 2211 1788.50 2133Q1912 2055 2007 1946Q2142 1792 2191.50 1607Q2241 1422 2241 1180L2241 0L1937 0L1937 1180Q1937 1529 1806 1716Q1712 1851 1557.50 1925Q1403 1999 1229 1999Q1072 1999 922.50 1925Q773 1851 676 1724Q600 1622 580.50 1496.50Q561 1371 561 1180L561 0L258 0L258 3027Z"  horiz-adv-x="2499" vert-adv-y="4096"  />

      
      <glyph glyph-name="uni69" unicode="&#x69;" d="M258 2241L561 2241L561 0L258 0L258 2241M258 3027L561 3027L561 2511L258 2511L258 3027Z"  horiz-adv-x="819" vert-adv-y="4096"  />

      
      <glyph glyph-name="uni6a" unicode="&#x6a;" d="M573 205Q573 17 563.50-97.50Q554-212 509.50-329.50Q465-447 369-553Q148-786-184-786L-184-492Q18-484 117-388.50Q216-293 243-150Q270-7 270 205L270 2241L573 2241L573 205M270 3027L573 3027L573 2511L270 2511L270 3027Z"  horiz-adv-x="831" vert-adv-y="4096"  />

      
      <glyph glyph-name="uni6b" unicode="&#x6b;" d="M258 3027L561 3027L561 901L1589 2241L1978 2241L1110 1118L2036 0L1647 0L918 885L561 426L561 0L258 0L258 3027Z"  horiz-adv-x="2056" vert-adv-y="4096"  />

      
      <glyph glyph-name="uni6c" unicode="&#x6c;" d="M258 3027L561 3027L561 0L258 0L258 3027Z"  horiz-adv-x="819" vert-adv-y="4096"  />

      
      <glyph glyph-name="uni6d" unicode="&#x6d;" d="M258 2241L545 2241L545 1950Q625 2119 785.50 2204.50Q946 2290 1143 2290Q1586 2290 1868 1950Q1872 1945 1896 1908Q1920 1871 1925 1864Q1932 1881 1945 1903.50Q1958 1926 1970 1950Q2084 2109 2280.50 2199.50Q2477 2290 2679 2290Q3035 2290 3375 1950Q3499 1826 3541.50 1666Q3584 1506 3584 1278L3584 0L3281 0L3281 1249Q3281 1576 3170 1733Q2980 1999 2662 1999Q2517 1999 2383.50 1930.50Q2250 1862 2167 1745Q2106 1655 2089.50 1537.50Q2073 1420 2073 1249L2073 0L1769 0L1769 1282Q1769 1431 1750 1528.50Q1731 1626 1663 1729Q1577 1853 1442.50 1926Q1308 1999 1159 1999Q1014 1999 883 1937.50Q752 1876 668 1761Q599 1662 580 1553.50Q561 1445 561 1282L561 0L258 0L258 2241Z"  horiz-adv-x="3842" vert-adv-y="4096"  />

      
      <glyph glyph-name="uni6e" unicode="&#x6e;" d="M258 2241L545 2241L545 1917Q810 2290 1241 2290Q1468 2290 1678 2193Q1888 2096 2036 1917Q2155 1767 2198 1592.50Q2241 1418 2241 1180L2241 0L1937 0L1937 1180Q1937 1349 1910.50 1477Q1884 1605 1806 1712Q1708 1851 1557 1925Q1406 1999 1229 1999Q1071 1999 921.50 1925.50Q772 1852 680 1724Q602 1620 583.50 1503Q565 1386 561 1180L561 0L258 0L258 2241Z"  horiz-adv-x="2499" vert-adv-y="4096"  />

      
      <glyph glyph-name="uni6f" unicode="&#x6f;" d="M2511 1135Q2511 821 2355 546Q2199 271 1930.50 109Q1662-53 1348-53Q1037-53 765.50 102.50Q494 258 333 525.50Q172 793 172 1106Q172 1426 328.50 1698.50Q485 1971 756 2130.50Q1027 2290 1348 2290Q1578 2290 1789 2199.50Q2000 2109 2163.50 1947Q2327 1785 2419 1574Q2511 1363 2511 1135M475 1106Q475 870 593.50 670Q712 470 912.50 354Q1113 238 1348 238Q1591 238 1788.50 359Q1986 480 2097 687.50Q2208 895 2208 1135Q2208 1503 1946 1753Q1823 1870 1668 1934.50Q1513 1999 1348 1999Q1107 1999 905.50 1878Q704 1757 589.50 1550.50Q475 1344 475 1106Z"  horiz-adv-x="2683" vert-adv-y="4096"  />

      
      <glyph glyph-name="uni70" unicode="&#x70;" d="M545 2241L545 1855Q628 1993 775 2092Q922 2191 1096.50 2240.50Q1271 2290 1438 2290Q1950 2290 2355 1855Q2425 1791 2486 1677Q2547 1563 2584 1416.50Q2621 1270 2621 1110Q2621 785 2456 518Q2291 251 2010.50 99Q1730-53 1409-53Q1146-53 906.50 70.50Q667 194 561 418L561-786L258-786L258 2241L545 2241M2318 1114Q2318 1354 2200.50 1557.50Q2083 1761 1879.50 1880Q1676 1999 1438 1999Q1195 1999 989 1887Q783 1775 662 1577Q541 1379 541 1139Q541 749 778 512Q1040 238 1417 238Q1663 238 1870.50 352Q2078 466 2198 666.50Q2318 867 2318 1114Z"  horiz-adv-x="2793" vert-adv-y="4096"  />

      
      <glyph glyph-name="uni71" unicode="&#x71;" d="M2535-786L2232-786L2232 418Q2127 194 1887 70.50Q1647-53 1384-53Q1063-53 782.50 99Q502 251 337 518Q172 785 172 1110Q172 1340 251 1547Q330 1754 434 1855Q807 2290 1356 2290Q1521 2290 1696 2240.50Q1871 2191 2018.50 2092Q2166 1993 2249 1855L2249 2241L2535 2241L2535-786M2019 512Q2253 751 2253 1139Q2253 1380 2132 1577.50Q2011 1775 1805.50 1887Q1600 1999 1356 1999Q1117 1999 913.50 1880Q710 1761 592.50 1557.50Q475 1354 475 1114Q475 867 595.50 666.50Q716 466 923 352Q1130 238 1376 238Q1757 238 2019 512Z"  horiz-adv-x="2793" vert-adv-y="4096"  />

      
      <glyph glyph-name="uni72" unicode="&#x72;" d="M258 2241L545 2241L545 1917Q705 2274 1196 2290L1196 1991Q953 1972 791 1835Q645 1711 603 1589.50Q561 1468 561 1253L561 0L258 0L258 2241Z"  horiz-adv-x="1233" vert-adv-y="4096"  />

      
      <glyph glyph-name="uni73" unicode="&#x73;" d="M377 659Q377 545 430.50 449Q484 353 577 295.50Q670 238 782 238Q947 238 1061.50 342.50Q1176 447 1176 610Q1176 795 1059 890.50Q942 986 741 1040Q577 1093 492 1130.50Q407 1168 336 1237Q156 1397 156 1663Q156 1839 243.50 1983.50Q331 2128 480.50 2209Q630 2290 803 2290Q967 2290 1110.50 2206.50Q1254 2123 1337.50 1983Q1421 1843 1421 1683L1118 1683Q1118 1828 1020 1913.50Q922 1999 770 1999Q641 1999 550 1908Q459 1817 459 1688Q459 1573 512 1502Q565 1431 645 1392.50Q725 1354 852 1315Q1049 1252 1182.50 1177.50Q1316 1103 1397.50 977Q1479 851 1479 659Q1479 453 1385 290Q1291 127 1125.50 37Q960-53 754-53Q571-53 415 41Q259 135 166.50 299Q74 463 74 659L377 659Z"  horiz-adv-x="1589" vert-adv-y="4096"  />

      
      <glyph glyph-name="uni74" unicode="&#x74;" d="M516 1966L49 1966L49 2241L516 2241L516 3027L819 3027L819 2241L1339 2241L1339 1966L819 1966L819 0L516 0L516 1966Z"  horiz-adv-x="1389" vert-adv-y="4096"  />

      
      <glyph glyph-name="uni75" unicode="&#x75;" d="M2232 0L1946 0L1946 348Q1874 208 1761 119Q1648 30 1505.50-11.50Q1363-53 1204-53Q1055-53 925.50-14.50Q796 24 669 113Q542 202 418 348Q326 447 292 623.50Q258 800 258 1057L258 2241L561 2241L561 1057Q561 898 580 780Q599 662 659 561Q751 404 904.50 321Q1058 238 1245 238Q1407 238 1552.50 310Q1698 382 1794 512Q1929 700 1929 1057L1929 2241L2232 2241L2232 0Z"  horiz-adv-x="2490" vert-adv-y="4096"  />

      
      <glyph glyph-name="uni76" unicode="&#x76;" d="M33 2241L360 2241L1135 385L1909 2241L2236 2241L1290 0L975 0L33 2241Z"  horiz-adv-x="2269" vert-adv-y="4096"  />

      
      <glyph glyph-name="uni77" unicode="&#x77;" d="M29 2241L348 2241L1053 365L1573 1966L1823 1966L2339 365L3056 2241L3375 2241L2523 0L2175 0L1696 1487L1225 0L877 0L29 2241Z"  horiz-adv-x="3404" vert-adv-y="4096"  />

      
      <glyph glyph-name="uni78" unicode="&#x78;" d="M799 1139L33 2241L389 2241L983 1376L1577 2241L1933 2241L1163 1139L1933 0L1577 0L983 897L389 0L33 0L799 1139Z"  horiz-adv-x="1966" vert-adv-y="4096"  />

      
      <glyph glyph-name="uni79" unicode="&#x79;" d="M2159 2241L864-786L545-786L897 70L37 2241L360 2241L1077 455L1835 2241L2159 2241Z"  horiz-adv-x="2195" vert-adv-y="4096"  />

      
      <glyph glyph-name="uni7a" unicode="&#x7a;" d="M41 266L1253 1966L82 1966L82 2241L1622 2241L1622 1966L418 274L1700 274L1700 0L41 0L41 266Z"  horiz-adv-x="1741" vert-adv-y="4096"  />

      
      <glyph glyph-name="uni7b" unicode="&#x7b;" d="M487 2408Q487 2637 538.50 2770Q590 2903 725 2965Q860 3027 1110 3027Q931 2973 856.50 2859.50Q782 2746 782 2556L782 1827Q782 1578 709.50 1442.50Q637 1307 414 1253Q629 1211 705.50 1088Q782 965 782 733L782-49Q782-181 811-271Q840-361 910.50-421Q981-481 1110-520Q939-520 839-502Q739-484 643-414Q547-341 517-233.50Q487-126 487 29L487 807Q487 923 474 985.50Q461 1048 401 1122Q302 1235 152 1253Q284 1289 369 1356Q450 1423 468.50 1501Q487 1579 487 1716L487 2408Z"  horiz-adv-x="1438" vert-adv-y="4096"  />

      
      <glyph glyph-name="uni7c" unicode="&#x7c;" d="M1245 3027L1507 3027L1507 0L1245 0L1245 3027Z"  horiz-adv-x="2753" vert-adv-y="4096"  />

      
      <glyph glyph-name="uni7d" unicode="&#x7d;" d="M471 2556Q471 2747 398.50 2860Q326 2973 156 3027Q400 3027 532.50 2965Q665 2903 715.50 2770Q766 2637 766 2408L766 1716Q766 1579 786.50 1500.50Q807 1422 889 1356Q974 1287 1102 1253Q956 1234 856 1122Q796 1051 781 987Q766 923 766 807L766 29Q766-129 737.50-235.50Q709-342 610-414Q516-484 418-502Q320-520 156-520Q335-463 403-356.50Q471-250 471-49L471 733Q471 964 548 1087Q625 1210 840 1253Q685 1291 605 1368Q525 1445 498 1553Q471 1661 471 1827L471 2556Z"  horiz-adv-x="1438" vert-adv-y="4096"  />

      
      <glyph glyph-name="uni7e" unicode="&#x7e;" d="M2273 1409Q2020 954 1692 954Q1641 954 1567 973Q1493 992 1439 1012.50Q1385 1033 1275 1079Q1165 1125 1139 1135Q896 1237 795 1237Q653 1237 567 1143.50Q481 1050 377 868L209 1065Q332 1287 465.50 1417.50Q599 1548 795 1548Q893 1548 1005 1511.50Q1117 1475 1300.50 1395Q1484 1315 1555 1288.50Q1626 1262 1696 1262Q1922 1262 2101 1602L2273 1409Z"  horiz-adv-x="2482" vert-adv-y="4096"  />

      
      <glyph glyph-name="uni201A" unicode="&#x201A;" d="M725 516L1028 516L668-274L365-274L725 516Z"  horiz-adv-x="1450" vert-adv-y="4096"  />

      
      <glyph glyph-name="uni201E" unicode="&#x201E;" d="M725 516L1028 516L668-274L365-274L725 516M1331 516L1630 516L1274-274L971-274L1331 516Z"  horiz-adv-x="2056" vert-adv-y="4096"  />

      
      <glyph glyph-name="uni2026" unicode="&#x2026;" d="M532 516L836 516L836 0L532 0L532 516M1896 516L2200 516L2200 0L1896 0L1896 516M3260 516L3564 516L3564 0L3260 0L3260 516Z"  horiz-adv-x="4096" vert-adv-y="4096"  />

      
      <glyph glyph-name="uni2020" unicode="&#x2020;" d="M1282 2208L2023 2208L2023 1933L1282 1933L1282-520L979-520L979 1933L242 1933L242 2208L979 2208L979 3027L1282 3027L1282 2208Z"  horiz-adv-x="2265" vert-adv-y="4096"  />

      
      <glyph glyph-name="uni2021" unicode="&#x2021;" d="M1282 2302L2023 2302L2023 2019L1282 2019L1282 1634L2023 1634L2023 1364L1282 1364L1282-524L983-524L983 1364L242 1364L242 1634L983 1634L983 2019L242 2019L242 2302L983 2302L983 3027L1282 3027L1282 2302Z"  horiz-adv-x="2265" vert-adv-y="4096"  />

      
      <glyph glyph-name="uni2030" unicode="&#x2030;" d="M2101 3027L2396 3027L1036 0L741 0L2101 3027M1479 2343Q1479 2153 1382 1991.50Q1285 1830 1121.50 1736Q958 1642 770 1642Q579 1642 414 1736.50Q249 1831 151 1995Q53 2159 53 2351Q53 2551 148 2717.50Q243 2884 408 2980Q573 3076 774 3076Q973 3076 1134 2975.50Q1295 2875 1387 2706.50Q1479 2538 1479 2343M3080 651Q3080 461 2982.50 298.50Q2885 136 2720.50 41.50Q2556-53 2367-53Q2177-53 2011 43Q1845 139 1748 301.50Q1651 464 1651 655Q1651 853 1746 1021Q1841 1189 2007.50 1286.50Q2174 1384 2372 1384Q2522 1384 2651.50 1326Q2781 1268 2878 1164.50Q2975 1061 3027.50 929.50Q3080 798 3080 651M4714 651Q4714 461 4616.50 298.50Q4519 136 4354.50 41.50Q4190-53 4002-53Q3811-53 3646 42.50Q3481 138 3383 300.50Q3285 463 3285 655Q3285 853 3380 1021Q3475 1189 3641.50 1286.50Q3808 1384 4006 1384Q4156 1384 4285.50 1326Q4415 1268 4512 1164.50Q4609 1061 4661.50 929.50Q4714 798 4714 651M1942 635Q1942 463 2066.50 350.50Q2191 238 2367 238Q2549 238 2669 355.50Q2789 473 2789 651Q2789 764 2732.50 867Q2676 970 2580.50 1032Q2485 1094 2372 1094Q2249 1094 2150 1032Q2051 970 1996.50 865Q1942 760 1942 635M774 2789Q650 2788 551.50 2729Q453 2670 398.50 2570Q344 2470 344 2347Q344 2233 401.50 2138Q459 2043 556 1988Q653 1933 766 1933Q884 1933 981 1990Q1078 2047 1133 2146.50Q1188 2246 1188 2363Q1188 2476 1132.50 2572.50Q1077 2669 981.50 2727Q886 2785 774 2785L774 2789M3576 639Q3576 465 3701 351.50Q3826 238 3998 238Q4182 238 4303 355Q4424 472 4424 651Q4424 764 4367 867Q4310 970 4214.50 1032Q4119 1094 4006 1094Q3820 1094 3698 961Q3576 828 3576 639Z"  horiz-adv-x="4809" vert-adv-y="4096"  />

      
      <glyph glyph-name="uni2039" unicode="&#x2039;" d="M164 1233L627 2048L864 1921L479 1233L864 545L627 414L164 1233Z"  horiz-adv-x="1028" vert-adv-y="4096"  />

      
      <glyph glyph-name="uni2018" unicode="&#x2018;" d="M762 2236L401 3027L705 3027L1065 2236L762 2236Z"  horiz-adv-x="1438" vert-adv-y="4096"  />

      
      <glyph glyph-name="uni2019" unicode="&#x2019;" d="M733 3027L1036 3027L676 2236L373 2236L733 3027Z"  horiz-adv-x="1438" vert-adv-y="4096"  />

      
      <glyph glyph-name="uni201C" unicode="&#x201C;" d="M1360 2236L999 3027L1303 3027L1663 2236L1360 2236M754 2236L393 3027L696 3027L1057 2236L754 2236Z"  horiz-adv-x="2056" vert-adv-y="4096"  />

      
      <glyph glyph-name="uni201D" unicode="&#x201D;" d="M700 3027L1004 3027L643 2236L356 2236L700 3027M1307 3027L1610 3027L1249 2236L946 2236L1307 3027Z"  horiz-adv-x="1982" vert-adv-y="4096"  />

      
      <glyph glyph-name="uni2022" unicode="&#x2022;" d="M1237 475Q1032 475 859.50 577Q687 679 585 851.50Q483 1024 483 1229Q483 1437 584.50 1611.50Q686 1786 859 1888.50Q1032 1991 1237 1991Q1445 1991 1620 1889Q1795 1787 1897 1612Q1999 1437 1999 1229Q1999 1024 1896.50 851Q1794 678 1619.50 576.50Q1445 475 1237 475Z"  horiz-adv-x="2482" vert-adv-y="4096"  />

      
      <glyph glyph-name="uni2013" unicode="&#x2013;" d="M2048 1368L2048 1094L0 1094L0 1368L2048 1368Z"  horiz-adv-x="2048" vert-adv-y="4096"  />

      
      <glyph glyph-name="uni2014" unicode="&#x2014;" d="M4096 1368L4096 1094L0 1094L0 1368L4096 1368Z"  horiz-adv-x="4096" vert-adv-y="4096"  />

      
      <glyph glyph-name="uni2122" unicode="&#x2122;" d="M3842 1303L3572 1303L3572 2781L2974 1303L2814 1303L2232 2781L2232 1303L1958 1303L1958 3027L2400 3027L2896 1810L3408 3027L3842 3027L3842 1303M1655 2781L1110 2781L1110 1303L807 1303L807 2781L258 2781L258 3027L1655 3027L1655 2781Z"  horiz-adv-x="4096" vert-adv-y="4096"  />

      
      <glyph glyph-name="uni203A" unicode="&#x203A;" d="M164 545L549 1233L164 1921L401 2048L864 1233L401 414L164 545Z"  horiz-adv-x="1028" vert-adv-y="4096"  />

      
      <glyph glyph-name="unia3" unicode="&#xa3;" d="M1663 852Q1658 774 1653 685.50Q1648 597 1634 526Q1620 455 1587 384.50Q1554 314 1499 246Q1381 98 1212 22.50Q1043-53 852-53Q635-53 451.50 48Q268 149 159.50 326Q51 503 45 717L344 717Q360 504 512 371Q664 238 881 238Q1031 238 1150.50 319Q1270 400 1323 541Q1360 659 1360 942L1360 3027L1663 3027L1663 852Z"  horiz-adv-x="1974" vert-adv-y="4096"  />

      
      <glyph glyph-name="unia4" unicode="&#xa4;" d="M303 623Q106 912 106 1229Q106 1569 303 1847L127 2023L340 2241L520 2064Q786 2265 1151 2265Q1458 2265 1749 2064L1929 2241L2142 2023L1966 1847Q2163 1564 2163 1208Q2163 1041 2115 906Q2067 771 1966 623L2142 451L1929 233L1749 410Q1472 205 1114 205Q811 205 520 410L340 233L127 451L303 623M1151 1970Q941 1970 769 1874Q597 1778 499 1608Q401 1438 401 1229Q401 1084 457.50 951.50Q514 819 615.50 717.50Q717 616 849 558.50Q981 501 1126 500Q1329 501 1499 599.50Q1669 698 1768.50 867.50Q1868 1037 1868 1241Q1868 1433 1771.50 1601Q1675 1769 1510.50 1869.50Q1346 1970 1151 1970Z"  horiz-adv-x="2269" vert-adv-y="4096"  />

      
      <glyph glyph-name="unia7" unicode="&#xa7;" d="M1688 2482Q1683 2623 1545.50 2704Q1408 2785 1253 2785Q1137 2785 1043 2740.50Q949 2696 896.50 2611.50Q844 2527 844 2408Q844 2278 919 2196.50Q994 2115 1130 2048L1647 1790Q1804 1712 1912.50 1638.50Q2021 1565 2094 1455Q2167 1345 2167 1196Q2167 1029 2073.50 859Q1980 689 1835 602Q1933 526 1990.50 405.50Q2048 285 2048 160Q2048-57 1943.50-223.50Q1839-390 1660.50-479.50Q1482-569 1266-569Q1034-569 845-459Q656-349 546-157Q436 35 430 266L717 266Q726 37 878.50-121Q1031-279 1266-279Q1485-279 1621-163.50Q1757-48 1757 152Q1757 306 1647 396Q1537 486 1335 586L672 930Q356 1091 356 1384Q356 1760 717 2011Q644 2078 598.50 2194Q553 2310 553 2417Q553 2603 646 2754.50Q739 2906 898 2991Q1057 3076 1245 3076Q1416 3076 1584.50 3002.50Q1753 2929 1861.50 2793Q1970 2657 1974 2482L1688 2482M1638 745Q1733 797 1804.50 913.50Q1876 1030 1876 1139Q1876 1285 1800.50 1362.50Q1725 1440 1565 1520L893 1860Q785 1797 716 1678Q647 1559 647 1434Q647 1318 716.50 1244Q786 1170 913 1106L1638 745Z"  horiz-adv-x="2519" vert-adv-y="4096"  />

      
      <glyph glyph-name="unia8" unicode="&#xa8;" d="M950 3813L950 3297L647 3297L647 3813L950 3813M1552 3813L1552 3297L1249 3297L1249 3813L1552 3813M311 3027L1966 3027L1966 2753L614 2753L614 1663L1921 1663L1921 1389L614 1389L614 274L1966 274L1966 0L311 0L311 3027Z"  horiz-adv-x="2195" vert-adv-y="4096"  />

      
      <glyph glyph-name="unia9" unicode="&#xa9;" d="M-37 1516Q-37 1937 173.50 2297Q384 2657 745 2866.50Q1106 3076 1532 3076Q1955 3076 2314 2866.50Q2673 2657 2882.50 2296.50Q3092 1936 3092 1516Q3092 1091 2882.50 729Q2673 367 2314 157Q1955-53 1532-53Q1106-53 745 157Q384 367 173.50 728.50Q-37 1090-37 1516M2904 1516Q2904 1886 2719.50 2202.50Q2535 2519 2218.50 2703.50Q1902 2888 1532 2888Q1159 2888 842 2703.50Q525 2519 340.50 2202.50Q156 1886 156 1516Q156 1142 340.50 823.50Q525 505 842 320Q1159 135 1532 135Q1902 135 2218.50 320Q2535 505 2719.50 823.50Q2904 1142 2904 1516M2327 1229Q2306 1047 2203.50 909.50Q2101 772 1941 697.50Q1781 623 1602 623Q1344 623 1146.50 741.50Q949 860 841 1067Q733 1274 733 1528Q733 1922 964.50 2173.50Q1196 2425 1589 2425Q1878 2425 2079.50 2267.50Q2281 2110 2327 1835L2101 1835Q2068 2018 1925.50 2129.50Q1783 2241 1593 2241Q1393 2241 1251 2147Q1109 2053 1036 1891.50Q963 1730 963 1532Q963 1341 1039.50 1175Q1116 1009 1261.50 910Q1407 811 1602 811Q1791 811 1934.50 926.50Q2078 1042 2101 1229L2327 1229Z"  horiz-adv-x="3060" vert-adv-y="4096"  />

      
      <glyph glyph-name="uniab" unicode="&#xab;" d="M164 1233L627 2048L864 1921L479 1233L864 545L627 414L164 1233M872 1233L1335 2048L1577 1921L1192 1233L1577 545L1335 414L872 1233Z"  horiz-adv-x="1741" vert-adv-y="4096"  />

      
      <glyph glyph-name="uniac" unicode="&#xac;" d="M1962 1475L209 1475L209 1786L2273 1786L2273 680L1962 680L1962 1475Z"  horiz-adv-x="2482" vert-adv-y="4096"  />

      
      <glyph glyph-name="uniad" unicode="&#xad;" d="M1683 2785L1683 2511L303 2511L303 2785L1683 2785Z"  horiz-adv-x="1987" vert-adv-y="4096"  />

      
      <glyph glyph-name="uniae" unicode="&#xae;" d="M-37 1516Q-37 1937 173.50 2297Q384 2657 745 2866.50Q1106 3076 1532 3076Q1955 3076 2314 2866.50Q2673 2657 2882.50 2296.50Q3092 1936 3092 1516Q3092 1091 2882.50 729Q2673 367 2314 157Q1955-53 1532-53Q1106-53 745 157Q384 367 173.50 728.50Q-37 1090-37 1516M2904 1516Q2904 1886 2719.50 2202.50Q2535 2519 2218.50 2703.50Q1902 2888 1532 2888Q1159 2888 842 2703.50Q525 2519 340.50 2202.50Q156 1886 156 1516Q156 1142 340.50 823.50Q525 505 842 320Q1159 135 1532 135Q1902 135 2218.50 320Q2535 505 2719.50 823.50Q2904 1142 2904 1516M2310 639L2056 639L1556 1446L1163 1446L1163 639L950 639L950 2388L1712 2388Q1994 2388 2138 2302Q2233 2249 2284 2146Q2335 2043 2335 1925Q2335 1681 2184.50 1566.50Q2034 1452 1782 1446L2310 639M1491 1614L1638 1614Q1860 1614 1989 1674Q2118 1734 2118 1929Q2118 2112 1993 2172Q1868 2232 1663 2232L1163 2232L1163 1614L1491 1614Z"  horiz-adv-x="3060" vert-adv-y="4096"  />

      
      <glyph glyph-name="uniaf" unicode="&#xaf;" d="M315 3813L315 3297L12 3297L12 3813L315 3813M918 3813L918 3297L614 3297L614 3813L918 3813M311 3027L614 3027L614 0L311 0L311 3027Z"  horiz-adv-x="926" vert-adv-y="4096"  />

      
      <glyph glyph-name="unib0" unicode="&#xb0;" d="M819 1798Q651 1798 510.50 1880.50Q370 1963 287.50 2104Q205 2245 205 2413Q205 2577 287.50 2719Q370 2861 511.50 2944Q653 3027 819 3027Q983 3027 1125 2944Q1267 2861 1350.50 2718.50Q1434 2576 1434 2413Q1434 2247 1350.50 2105Q1267 1963 1125.50 1880.50Q984 1798 819 1798M815 2863Q631 2863 500 2730Q369 2597 369 2413Q369 2225 500.50 2093.50Q632 1962 819 1962Q941 1962 1044 2022.50Q1147 2083 1208.50 2187Q1270 2291 1270 2413Q1270 2531 1209 2635.50Q1148 2740 1042 2801.50Q936 2863 815 2863Z"  horiz-adv-x="1638" vert-adv-y="4096"  />

      
      <glyph glyph-name="unib1" unicode="&#xb1;" d="M1085 2269L1397 2269L1397 1606L2273 1606L2273 1294L1397 1294L1397 623L1085 623L1085 1294L209 1294L209 1606L1085 1606L1085 2269M209 311L2273 311L2273 0L209 0L209 311Z"  horiz-adv-x="2482" vert-adv-y="4096"  />

      
      <glyph glyph-name="unib2" unicode="&#xb2;" d="M311 3027L614 3027L614 0L311 0L311 3027Z"  horiz-adv-x="926" vert-adv-y="4096"  />

      
      <glyph glyph-name="unib3" unicode="&#xb3;" d="M258 2241L561 2241L561 0L258 0L258 2241M258 3027L561 3027L561 2511L258 2511L258 3027Z"  horiz-adv-x="819" vert-adv-y="4096"  />

      
      <glyph glyph-name="unib5" unicode="&#xb5;" d="M1929 2241L2232 2241L2232 0L1946 0L1946 348L1937 348Q1869 208 1758 119Q1647 30 1505-11.50Q1363-53 1204-53Q837-53 561 201L561-786L258-786L258 2241L561 2241L561 1057Q561 898 580 780Q599 662 659 561Q751 404 904.50 321Q1058 238 1245 238Q1407 238 1552.50 310Q1698 382 1794 512Q1929 700 1929 1057L1929 2241Z"  horiz-adv-x="2490" vert-adv-y="4096"  />

      
      <glyph glyph-name="unib6" unicode="&#xb6;" d="M938 1454Q733 1454 551 1560.50Q369 1667 260.50 1847Q152 2027 152 2232Q152 2402 221.50 2562.50Q291 2723 414 2830Q547 2953 690.50 2988Q834 3023 1065 3027L2011 3027L2011-520L1708-520L1708 2753L1241 2753L1241-520L938-520L938 1454Z"  horiz-adv-x="2310" vert-adv-y="4096"  />

      
      <glyph glyph-name="unib7" unicode="&#xb7;" d="M414 1491L717 1491L717 975L414 975L414 1491Z"  horiz-adv-x="1135" vert-adv-y="4096"  />

      
      <glyph glyph-name="unib8" unicode="&#xb8;" d="M1184 3027L1184 2511L881 2511L881 3027L1184 3027M1786 3027L1786 2511L1483 2511L1483 3027L1786 3027M475 1012Q484 806 606 627.50Q728 449 921 343.50Q1114 238 1319 238Q1487 238 1646.50 297.50Q1806 357 1931.50 469Q2057 581 2122 729L2437 729Q2359 506 2192 327.50Q2025 149 1803 48Q1581-53 1348-53Q1026-53 755.50 103Q485 259 328.50 527.50Q172 796 172 1118Q172 1437 328 1707.50Q484 1978 752 2134Q1020 2290 1339 2290Q1602 2290 1837 2175.50Q2072 2061 2241 1855Q2385 1676 2440.50 1477.50Q2496 1279 2503 1012L475 1012M2200 1286Q2161 1484 2036 1646.50Q1911 1809 1728.50 1904Q1546 1999 1343 1999Q1136 1999 949.50 1907.50Q763 1816 637.50 1652.50Q512 1489 475 1286L2200 1286Z"  horiz-adv-x="2662" vert-adv-y="4096"  />

      
      <glyph glyph-name="unib9" unicode="&#xb9;" d="M1380 2445Q1380 2283 1294 2140Q1208 1997 1063.50 1912Q919 1827 758 1827Q591 1827 446 1910Q301 1993 216 2135.50Q131 2278 131 2445Q131 2617 214 2761.50Q297 2906 441 2991Q585 3076 758 3076Q925 3076 1069 2989.50Q1213 2903 1296.50 2756.50Q1380 2610 1380 2445M1380 1511L1380 1331L131 1331L131 1511L1380 1511M1192 2454Q1192 2639 1068.50 2767.50Q945 2896 758 2896Q571 2896 445 2767.50Q319 2639 319 2454Q319 2267 445 2137Q571 2007 758 2007Q944 2007 1068 2137Q1192 2267 1192 2454Z"  horiz-adv-x="1511" vert-adv-y="4096"  />

      
      <glyph glyph-name="unibb" unicode="&#xbb;" d="M872 545L1257 1233L872 1921L1114 2048L1577 1233L1114 414L872 545M164 545L549 1233L164 1921L401 2048L864 1233L401 414L164 545Z"  horiz-adv-x="1741" vert-adv-y="4096"  />

      
      <glyph glyph-name="unibc" unicode="&#xbc;" d="M573 205Q573 17 563.50-97.50Q554-212 509.50-329.50Q465-447 369-553Q148-786-184-786L-184-492Q18-484 117-388.50Q216-293 243-150Q270-7 270 205L270 2241L573 2241L573 205M270 3027L573 3027L573 2511L270 2511L270 3027Z"  horiz-adv-x="831" vert-adv-y="4096"  />

      
      <glyph glyph-name="unibd" unicode="&#xbd;" d="M414 848Q419 682 498.50 543Q578 404 716 321Q854 238 1020 238Q1192 238 1335 314.50Q1478 391 1562.50 528.50Q1647 666 1647 836Q1647 959 1590.50 1074Q1534 1189 1438 1266Q1343 1343 1237 1384Q1131 1425 971 1466Q777 1518 658 1563.50Q539 1609 438 1696Q184 1912 184 2261Q184 2500 299 2685.50Q414 2871 610.50 2973.50Q807 3076 1044 3076Q1270 3076 1461.50 2968Q1653 2860 1764.50 2672Q1876 2484 1876 2257L1561 2257Q1551 2409 1477.50 2530Q1404 2651 1283 2718Q1162 2785 1008 2785Q865 2785 745 2713.50Q625 2642 556 2520.50Q487 2399 487 2257Q487 2088 569 1985Q651 1882 773.50 1829Q896 1776 1085 1724Q1324 1658 1438 1614Q1552 1570 1667 1466Q1801 1351 1875.50 1182Q1950 1013 1950 831Q1950 587 1823 384Q1696 181 1484 64Q1272-53 1028-53Q773-53 557.50 62Q342 177 216 384Q90 591 90 848L414 848Z"  horiz-adv-x="2040" vert-adv-y="4096"  />

      
      <glyph glyph-name="unibe" unicode="&#xbe;" d="M377 659Q377 545 430.50 449Q484 353 577 295.50Q670 238 782 238Q947 238 1061.50 342.50Q1176 447 1176 610Q1176 795 1059 890.50Q942 986 741 1040Q577 1093 492 1130.50Q407 1168 336 1237Q156 1397 156 1663Q156 1839 243.50 1983.50Q331 2128 480.50 2209Q630 2290 803 2290Q967 2290 1110.50 2206.50Q1254 2123 1337.50 1983Q1421 1843 1421 1683L1118 1683Q1118 1828 1020 1913.50Q922 1999 770 1999Q641 1999 550 1908Q459 1817 459 1688Q459 1573 512 1502Q565 1431 645 1392.50Q725 1354 852 1315Q1049 1252 1182.50 1177.50Q1316 1103 1397.50 977Q1479 851 1479 659Q1479 453 1385 290Q1291 127 1125.50 37Q960-53 754-53Q571-53 415 41Q259 135 166.50 299Q74 463 74 659L377 659Z"  horiz-adv-x="1589" vert-adv-y="4096"  />

      
      <glyph glyph-name="unibf" unicode="&#xbf;" d="M262 3027L262 2511L-41 2511L-41 3027L262 3027M864 3027L864 2511L561 2511L561 3027L864 3027M258 2241L561 2241L561 0L258 0L258 2241Z"  horiz-adv-x="819" vert-adv-y="4096"  />

      
      <glyph glyph-name="unic0" unicode="&#xc0;" d="M1352 3027L1688 3027L2986 0L2658 0L2220 1016L811 1016L373 0L45 0L1352 3027M2101 1290L1520 2679L930 1290L2101 1290Z"  horiz-adv-x="3031" vert-adv-y="4096"  />

      
      <glyph glyph-name="uni0410" unicode="&#x0410;" d="M1352 3027L1688 3027L2986 0L2658 0L2220 1016L811 1016L373 0L45 0L1352 3027M2101 1290L1520 2679L930 1290L2101 1290Z"  horiz-adv-x="3031" vert-adv-y="4096"  />

      
      <glyph glyph-name="unic1" unicode="&#xc1;" d="M2007 3027L2007 2753L614 2753L614 1806L1184 1806Q1434 1806 1623 1766.50Q1812 1727 1970 1610Q2314 1359 2314 909Q2314 678 2211 481Q2108 284 1917 164Q1802 91 1672.50 56Q1543 21 1411 11.50Q1279 2 1106 0L311 0L311 3027L2007 3027M1135 1532L614 1532L614 274L1004 274Q1036 274 1105 272Q1174 270 1208 270Q1468 270 1634 340Q1812 413 1911.50 561Q2011 709 2011 905Q2011 1058 1941 1194.50Q1871 1331 1745 1409Q1624 1486 1479.50 1509Q1335 1532 1135 1532Z"  horiz-adv-x="2425" vert-adv-y="4096"  />

      
      <glyph glyph-name="uni0411" unicode="&#x0411;" d="M2007 3027L2007 2753L614 2753L614 1806L1184 1806Q1434 1806 1623 1766.50Q1812 1727 1970 1610Q2314 1359 2314 909Q2314 678 2211 481Q2108 284 1917 164Q1802 91 1672.50 56Q1543 21 1411 11.50Q1279 2 1106 0L311 0L311 3027L2007 3027M1135 1532L614 1532L614 274L1004 274Q1036 274 1105 272Q1174 270 1208 270Q1468 270 1634 340Q1812 413 1911.50 561Q2011 709 2011 905Q2011 1058 1941 1194.50Q1871 1331 1745 1409Q1624 1486 1479.50 1509Q1335 1532 1135 1532Z"  horiz-adv-x="2425" vert-adv-y="4096"  />

      
      <glyph glyph-name="unic2" unicode="&#xc2;" d="M311 3027L1020 3027Q1239 3027 1403 2997.50Q1567 2968 1708 2875Q1872 2768 1968 2593.50Q2064 2419 2064 2224Q2064 1855 1729 1618Q1966 1522 2097 1320.50Q2228 1119 2228 856Q2228 649 2128.50 461.50Q2029 274 1855 164Q1731 88 1600.50 53Q1470 18 1345 10Q1220 2 1024 0L311 0L311 3027M987 274Q1203 274 1353.50 289.50Q1504 305 1626 365Q1755 432 1838 569.50Q1921 707 1921 852Q1921 1045 1820 1190.50Q1719 1336 1544 1397Q1356 1458 934 1458L614 1458L614 274L987 274M942 1733Q1139 1733 1271.50 1749Q1404 1765 1516 1823Q1624 1880 1692.50 1998.50Q1761 2117 1761 2245Q1761 2367 1693.50 2482Q1626 2597 1520 2662Q1419 2721 1287.50 2737Q1156 2753 967 2753L614 2753L614 1733L942 1733Z"  horiz-adv-x="2351" vert-adv-y="4096"  />

      
      <glyph glyph-name="uni0412" unicode="&#x0412;" d="M311 3027L1020 3027Q1239 3027 1403 2997.50Q1567 2968 1708 2875Q1872 2768 1968 2593.50Q2064 2419 2064 2224Q2064 1855 1729 1618Q1966 1522 2097 1320.50Q2228 1119 2228 856Q2228 649 2128.50 461.50Q2029 274 1855 164Q1731 88 1600.50 53Q1470 18 1345 10Q1220 2 1024 0L311 0L311 3027M987 274Q1203 274 1353.50 289.50Q1504 305 1626 365Q1755 432 1838 569.50Q1921 707 1921 852Q1921 1045 1820 1190.50Q1719 1336 1544 1397Q1356 1458 934 1458L614 1458L614 274L987 274M942 1733Q1139 1733 1271.50 1749Q1404 1765 1516 1823Q1624 1880 1692.50 1998.50Q1761 2117 1761 2245Q1761 2367 1693.50 2482Q1626 2597 1520 2662Q1419 2721 1287.50 2737Q1156 2753 967 2753L614 2753L614 1733L942 1733Z"  horiz-adv-x="2351" vert-adv-y="4096"  />

      
      <glyph glyph-name="unic3" unicode="&#xc3;" d="M311 3027L1847 3027L1847 2753L614 2753L614 0L311 0L311 3027Z"  horiz-adv-x="1876" vert-adv-y="4096"  />

      
      <glyph glyph-name="uni0413" unicode="&#x0413;" d="M311 3027L1847 3027L1847 2753L614 2753L614 0L311 0L311 3027Z"  horiz-adv-x="1876" vert-adv-y="4096"  />

      
      <glyph glyph-name="unic4" unicode="&#xc4;" d="M160 274L942 3027L2380 3027L2380 274L2585 274L2585 0L0 0L0 274L160 274M2077 274L2077 2753L1167 2753L479 274L2077 274Z"  horiz-adv-x="2691" vert-adv-y="4096"  />

      
      <glyph glyph-name="uni0414" unicode="&#x0414;" d="M160 274L942 3027L2380 3027L2380 274L2585 274L2585 0L0 0L0 274L160 274M2077 274L2077 2753L1167 2753L479 274L2077 274Z"  horiz-adv-x="2691" vert-adv-y="4096"  />

      
      <glyph glyph-name="unic5" unicode="&#xc5;" d="M311 3027L1966 3027L1966 2753L614 2753L614 1663L1921 1663L1921 1389L614 1389L614 274L1966 274L1966 0L311 0L311 3027Z"  horiz-adv-x="2195" vert-adv-y="4096"  />

      
      <glyph glyph-name="uni0415" unicode="&#x0415;" d="M311 3027L1966 3027L1966 2753L614 2753L614 1663L1921 1663L1921 1389L614 1389L614 274L1966 274L1966 0L311 0L311 3027Z"  horiz-adv-x="2195" vert-adv-y="4096"  />

      
      <glyph glyph-name="unic6" unicode="&#xc6;" d="M1520 1446L401 0L25 0L1221 1552L25 3027L410 3027Q480 2941 631.50 2753Q783 2565 973.50 2327.50Q1164 2090 1342 1867.50Q1520 1645 1520 1642L1520 3027L1823 3027L1823 1647L2933 3027L3318 3027L2122 1552L3318 0L2941 0L1823 1446L1823 0L1520 0L1520 1446Z"  horiz-adv-x="3342" vert-adv-y="4096"  />

      
      <glyph glyph-name="uni0416" unicode="&#x0416;" d="M1520 1446L401 0L25 0L1221 1552L25 3027L410 3027Q480 2941 631.50 2753Q783 2565 973.50 2327.50Q1164 2090 1342 1867.50Q1520 1645 1520 1642L1520 3027L1823 3027L1823 1647L2933 3027L3318 3027L2122 1552L3318 0L2941 0L1823 1446L1823 0L1520 0L1520 1446Z"  horiz-adv-x="3342" vert-adv-y="4096"  />

      
      <glyph glyph-name="unic7" unicode="&#xc7;" d="M705 1450L705 1729L1069 1729Q1225 1729 1358 1788.50Q1491 1848 1571 1967.50Q1651 2087 1651 2257Q1651 2399 1582 2520.50Q1513 2642 1393 2713.50Q1273 2785 1130 2785Q976 2785 855 2718Q734 2651 661.50 2530.50Q589 2410 578 2257L262 2257Q262 2484 373.50 2672Q485 2860 676.50 2968Q868 3076 1094 3076Q1331 3076 1527.50 2973.50Q1724 2871 1839 2685.50Q1954 2500 1954 2261Q1954 1912 1700 1696Q1648 1648 1552 1597Q1666 1545 1749 1466Q1883 1351 1957.50 1182Q2032 1013 2032 831Q2032 587 1905 384Q1778 181 1566 64Q1354-53 1110-53Q855-53 639.50 62Q424 177 298 384Q172 591 172 848L496 848Q501 682 580.50 543Q660 404 798 321Q936 238 1102 238Q1274 238 1417 314.50Q1560 391 1644.50 528.50Q1729 666 1729 836Q1729 1002 1645.50 1144Q1562 1286 1419.50 1368Q1277 1450 1110 1450L705 1450Z"  horiz-adv-x="2204" vert-adv-y="4096"  />

      
      <glyph glyph-name="uni0417" unicode="&#x0417;" d="M705 1450L705 1729L1069 1729Q1225 1729 1358 1788.50Q1491 1848 1571 1967.50Q1651 2087 1651 2257Q1651 2399 1582 2520.50Q1513 2642 1393 2713.50Q1273 2785 1130 2785Q976 2785 855 2718Q734 2651 661.50 2530.50Q589 2410 578 2257L262 2257Q262 2484 373.50 2672Q485 2860 676.50 2968Q868 3076 1094 3076Q1331 3076 1527.50 2973.50Q1724 2871 1839 2685.50Q1954 2500 1954 2261Q1954 1912 1700 1696Q1648 1648 1552 1597Q1666 1545 1749 1466Q1883 1351 1957.50 1182Q2032 1013 2032 831Q2032 587 1905 384Q1778 181 1566 64Q1354-53 1110-53Q855-53 639.50 62Q424 177 298 384Q172 591 172 848L496 848Q501 682 580.50 543Q660 404 798 321Q936 238 1102 238Q1274 238 1417 314.50Q1560 391 1644.50 528.50Q1729 666 1729 836Q1729 1002 1645.50 1144Q1562 1286 1419.50 1368Q1277 1450 1110 1450L705 1450Z"  horiz-adv-x="2204" vert-adv-y="4096"  />

      
      <glyph glyph-name="unic8" unicode="&#xc8;" d="M2638 3027L2638 0L2335 0L2335 2662L618 0L311 0L311 3027L614 3027L614 516L2224 3027L2638 3027Z"  horiz-adv-x="2949" vert-adv-y="4096"  />

      
      <glyph glyph-name="uni0418" unicode="&#x0418;" d="M2638 3027L2638 0L2335 0L2335 2662L618 0L311 0L311 3027L614 3027L614 516L2224 3027L2638 3027Z"  horiz-adv-x="2949" vert-adv-y="4096"  />

      
      <glyph glyph-name="unic9" unicode="&#xc9;" d="M2638 3027L2638 0L2335 0L2335 2662L618 0L311 0L311 3027L614 3027L614 516L2224 3027L2638 3027M1110 3678Q1154 3586 1256.50 3538Q1359 3490 1475 3490Q1590 3490 1693.50 3538.50Q1797 3587 1839 3678L2097 3678Q2044 3470 1872 3363Q1700 3256 1475 3256Q1249 3256 1077 3363Q905 3470 852 3678L1110 3678Z"  horiz-adv-x="2949" vert-adv-y="4096"  />

      
      <glyph glyph-name="uni0419" unicode="&#x0419;" d="M2638 3027L2638 0L2335 0L2335 2662L618 0L311 0L311 3027L614 3027L614 516L2224 3027L2638 3027M1110 3678Q1154 3586 1256.50 3538Q1359 3490 1475 3490Q1590 3490 1693.50 3538.50Q1797 3587 1839 3678L2097 3678Q2044 3470 1872 3363Q1700 3256 1475 3256Q1249 3256 1077 3363Q905 3470 852 3678L1110 3678Z"  horiz-adv-x="2949" vert-adv-y="4096"  />

      
      <glyph glyph-name="unica" unicode="&#xca;" d="M311 3027L614 3027L614 1286L2011 3027L2396 3027L1200 1552L2396 0L2019 0L1008 1311L614 827L614 0L311 0L311 3027Z"  horiz-adv-x="2421" vert-adv-y="4096"  />

      
      <glyph glyph-name="uni041A" unicode="&#x041A;" d="M311 3027L614 3027L614 1286L2011 3027L2396 3027L1200 1552L2396 0L2019 0L1008 1311L614 827L614 0L311 0L311 3027Z"  horiz-adv-x="2421" vert-adv-y="4096"  />

      
      <glyph glyph-name="unicb" unicode="&#xcb;" d="M2380 3027L2380 0L2077 0L2077 2753L1126 2753L360 0L41 0L901 3027L2380 3027Z"  horiz-adv-x="2691" vert-adv-y="4096"  />

      
      <glyph glyph-name="uni041B" unicode="&#x041B;" d="M2380 3027L2380 0L2077 0L2077 2753L1126 2753L360 0L41 0L901 3027L2380 3027Z"  horiz-adv-x="2691" vert-adv-y="4096"  />

      
      <glyph glyph-name="unicc" unicode="&#xcc;" d="M311 3027L778 3027L1884 451L2986 3027L3453 3027L3453 0L3150 0L3150 2691L2011 0L1753 0L614 2691L614 0L311 0L311 3027Z"  horiz-adv-x="3764" vert-adv-y="4096"  />

      
      <glyph glyph-name="uni041C" unicode="&#x041C;" d="M311 3027L778 3027L1884 451L2986 3027L3453 3027L3453 0L3150 0L3150 2691L2011 0L1753 0L614 2691L614 0L311 0L311 3027Z"  horiz-adv-x="3764" vert-adv-y="4096"  />

      
      <glyph glyph-name="unicd" unicode="&#xcd;" d="M311 3027L614 3027L614 1696L2183 1696L2183 3027L2486 3027L2486 0L2183 0L2183 1421L614 1421L614 0L311 0L311 3027Z"  horiz-adv-x="2798" vert-adv-y="4096"  />

      
      <glyph glyph-name="uni041D" unicode="&#x041D;" d="M311 3027L614 3027L614 1696L2183 1696L2183 3027L2486 3027L2486 0L2183 0L2183 1421L614 1421L614 0L311 0L311 3027Z"  horiz-adv-x="2798" vert-adv-y="4096"  />

      
      <glyph glyph-name="unice" unicode="&#xce;" d="M3379 1520Q3379 1092 3162.50 729Q2946 366 2576.50 156.50Q2207-53 1778-53Q1359-53 990 155Q621 363 400.50 720.50Q180 1078 180 1499Q180 1929 395.50 2290.50Q611 2652 980 2862Q1349 3072 1778 3072Q2200 3072 2569.50 2864.50Q2939 2657 3159 2300Q3379 1943 3379 1520M483 1499Q483 1156 662.50 867Q842 578 1143 408Q1444 238 1782 238Q2043 238 2280.50 337Q2518 436 2697 612.50Q2876 789 2976 1023Q3076 1257 3076 1520Q3076 1861 2898 2151.50Q2720 2442 2420 2611.50Q2120 2781 1782 2781Q1520 2781 1283 2682.50Q1046 2584 865 2405.50Q684 2227 583.50 1993Q483 1759 483 1499Z"  horiz-adv-x="3559" vert-adv-y="4096"  />

      
      <glyph glyph-name="uni041E" unicode="&#x041E;" d="M3379 1520Q3379 1092 3162.50 729Q2946 366 2576.50 156.50Q2207-53 1778-53Q1359-53 990 155Q621 363 400.50 720.50Q180 1078 180 1499Q180 1929 395.50 2290.50Q611 2652 980 2862Q1349 3072 1778 3072Q2200 3072 2569.50 2864.50Q2939 2657 3159 2300Q3379 1943 3379 1520M483 1499Q483 1156 662.50 867Q842 578 1143 408Q1444 238 1782 238Q2043 238 2280.50 337Q2518 436 2697 612.50Q2876 789 2976 1023Q3076 1257 3076 1520Q3076 1861 2898 2151.50Q2720 2442 2420 2611.50Q2120 2781 1782 2781Q1520 2781 1283 2682.50Q1046 2584 865 2405.50Q684 2227 583.50 1993Q483 1759 483 1499Z"  horiz-adv-x="3559" vert-adv-y="4096"  />

      
      <glyph glyph-name="unicf" unicode="&#xcf;" d="M311 3027L2486 3027L2486 0L2183 0L2183 2753L614 2753L614 0L311 0L311 3027Z"  horiz-adv-x="2798" vert-adv-y="4096"  />

      
      <glyph glyph-name="uni041F" unicode="&#x041F;" d="M311 3027L2486 3027L2486 0L2183 0L2183 2753L614 2753L614 0L311 0L311 3027Z"  horiz-adv-x="2798" vert-adv-y="4096"  />

      
      <glyph glyph-name="unid0" unicode="&#xd0;" d="M311 3027L1106 3027Q1279 3025 1411 3015.50Q1543 3006 1672.50 2971Q1802 2936 1917 2863Q2110 2742 2212 2545.50Q2314 2349 2314 2118Q2314 1668 1970 1417Q1810 1299 1622.50 1260Q1435 1221 1184 1221L614 1221L614 0L311 0L311 3027M1135 1495Q1335 1495 1478 1518Q1621 1541 1745 1618Q1871 1696 1941 1832.50Q2011 1969 2011 2122Q2011 2317 1911.50 2465.50Q1812 2614 1634 2687Q1468 2757 1208 2757Q1174 2757 1105 2755Q1036 2753 1004 2753L614 2753L614 1495L1135 1495Z"  horiz-adv-x="2425" vert-adv-y="4096"  />

      
      <glyph glyph-name="uni0420" unicode="&#x0420;" d="M311 3027L1106 3027Q1279 3025 1411 3015.50Q1543 3006 1672.50 2971Q1802 2936 1917 2863Q2110 2742 2212 2545.50Q2314 2349 2314 2118Q2314 1668 1970 1417Q1810 1299 1622.50 1260Q1435 1221 1184 1221L614 1221L614 0L311 0L311 3027M1135 1495Q1335 1495 1478 1518Q1621 1541 1745 1618Q1871 1696 1941 1832.50Q2011 1969 2011 2122Q2011 2317 1911.50 2465.50Q1812 2614 1634 2687Q1468 2757 1208 2757Q1174 2757 1105 2755Q1036 2753 1004 2753L614 2753L614 1495L1135 1495Z"  horiz-adv-x="2425" vert-adv-y="4096"  />

      
      <glyph glyph-name="unid1" unicode="&#xd1;" d="M2806 2249Q2695 2417 2524.50 2538.50Q2354 2660 2153.50 2722.50Q1953 2785 1749 2785Q1414 2785 1121.50 2609.50Q829 2434 656 2141.50Q483 1849 483 1524Q483 1179 659.50 882.50Q836 586 1134 412Q1432 238 1769 238Q2074 238 2356 389Q2638 540 2818 791L3154 791Q3023 540 2806.50 349Q2590 158 2321 52.50Q2052-53 1769-53Q1442-53 1152 66Q862 185 642.50 400.50Q423 616 301.50 906.50Q180 1197 180 1524Q180 1945 391 2302Q602 2659 962 2867.50Q1322 3076 1745 3076Q2236 3076 2617 2822Q2778 2721 2931.50 2562Q3085 2403 3142 2249L2806 2249Z"  horiz-adv-x="3330" vert-adv-y="4096"  />

      
      <glyph glyph-name="uni0421" unicode="&#x0421;" d="M2806 2249Q2695 2417 2524.50 2538.50Q2354 2660 2153.50 2722.50Q1953 2785 1749 2785Q1414 2785 1121.50 2609.50Q829 2434 656 2141.50Q483 1849 483 1524Q483 1179 659.50 882.50Q836 586 1134 412Q1432 238 1769 238Q2074 238 2356 389Q2638 540 2818 791L3154 791Q3023 540 2806.50 349Q2590 158 2321 52.50Q2052-53 1769-53Q1442-53 1152 66Q862 185 642.50 400.50Q423 616 301.50 906.50Q180 1197 180 1524Q180 1945 391 2302Q602 2659 962 2867.50Q1322 3076 1745 3076Q2236 3076 2617 2822Q2778 2721 2931.50 2562Q3085 2403 3142 2249L2806 2249Z"  horiz-adv-x="3330" vert-adv-y="4096"  />

      
      <glyph glyph-name="unid2" unicode="&#xd2;" d="M721 2753L29 2753L29 3027L1716 3027L1716 2753L1024 2753L1024 0L721 0L721 2753Z"  horiz-adv-x="1745" vert-adv-y="4096"  />

      
      <glyph glyph-name="uni0422" unicode="&#x0422;" d="M721 2753L29 2753L29 3027L1716 3027L1716 2753L1024 2753L1024 0L721 0L721 2753Z"  horiz-adv-x="1745" vert-adv-y="4096"  />

      
      <glyph glyph-name="unid3" unicode="&#xd3;" d="M1327 430L8 3027L340 3027L1475 786L2417 3027L2753 3027L1442 0L1135 0L1327 430Z"  horiz-adv-x="2785" vert-adv-y="4096"  />

      
      <glyph glyph-name="uni0423" unicode="&#x0423;" d="M1327 430L8 3027L340 3027L1475 786L2417 3027L2753 3027L1442 0L1135 0L1327 430Z"  horiz-adv-x="2785" vert-adv-y="4096"  />

      
      <glyph glyph-name="unid4" unicode="&#xd4;" d="M2089-53L1778-53Q1359-53 990 155Q621 363 400.50 720.50Q180 1078 180 1499Q180 1929 395.50 2290.50Q611 2652 980 2862Q1349 3072 1778 3072L2089 3072Q2518 3072 2886.50 2862.50Q3255 2653 3470.50 2291Q3686 1929 3686 1499Q3686 1183 3558.50 898Q3431 613 3206.50 399Q2982 185 2691.50 66Q2401-53 2089-53M2085 2781L2085 238Q2423 238 2723.50 407.50Q3024 577 3203.50 867Q3383 1157 3383 1499Q3383 1761 3282.50 1994.50Q3182 2228 3001.50 2406Q2821 2584 2584.50 2682.50Q2348 2781 2085 2781M1782 2781Q1520 2781 1283 2682.50Q1046 2584 865 2405.50Q684 2227 583.50 1993Q483 1759 483 1499Q483 1156 662.50 867Q842 578 1143 408Q1444 238 1782 238L1782 2781Z"  horiz-adv-x="3867" vert-adv-y="4096"  />

      
      <glyph glyph-name="uni0424" unicode="&#x0424;" d="M2089-53L1778-53Q1359-53 990 155Q621 363 400.50 720.50Q180 1078 180 1499Q180 1929 395.50 2290.50Q611 2652 980 2862Q1349 3072 1778 3072L2089 3072Q2518 3072 2886.50 2862.50Q3255 2653 3470.50 2291Q3686 1929 3686 1499Q3686 1183 3558.50 898Q3431 613 3206.50 399Q2982 185 2691.50 66Q2401-53 2089-53M2085 2781L2085 238Q2423 238 2723.50 407.50Q3024 577 3203.50 867Q3383 1157 3383 1499Q3383 1761 3282.50 1994.50Q3182 2228 3001.50 2406Q2821 2584 2584.50 2682.50Q2348 2781 2085 2781M1782 2781Q1520 2781 1283 2682.50Q1046 2584 865 2405.50Q684 2227 583.50 1993Q483 1759 483 1499Q483 1156 662.50 867Q842 578 1143 408Q1444 238 1782 238L1782 2781Z"  horiz-adv-x="3867" vert-adv-y="4096"  />

      
      <glyph glyph-name="unid5" unicode="&#xd5;" d="M1061 1548L94 3027L446 3027L1249 1815L2048 3027L2400 3027L1421 1548L2462 0L2105 0L1249 1294L389 0L33 0L1061 1548Z"  horiz-adv-x="2494" vert-adv-y="4096"  />

      
      <glyph glyph-name="uni0425" unicode="&#x0425;" d="M1061 1548L94 3027L446 3027L1249 1815L2048 3027L2400 3027L1421 1548L2462 0L2105 0L1249 1294L389 0L33 0L1061 1548Z"  horiz-adv-x="2494" vert-adv-y="4096"  />

      
      <glyph glyph-name="unid6" unicode="&#xd6;" d="M311 0L311 3027L614 3027L614 274L2183 274L2183 3027L2486 3027L2486 274L2691 274L2691 0L311 0Z"  horiz-adv-x="2798" vert-adv-y="4096"  />

      
      <glyph glyph-name="uni0426" unicode="&#x0426;" d="M311 0L311 3027L614 3027L614 274L2183 274L2183 3027L2486 3027L2486 274L2691 274L2691 0L311 0Z"  horiz-adv-x="2798" vert-adv-y="4096"  />

      
      <glyph glyph-name="unid7" unicode="&#xd7;" d="M201 3027L504 3027L504 1901Q504 1745 577 1629.50Q650 1514 777 1453.50Q904 1393 1057 1393Q1551 1393 1958 1704L1958 3027L2261 3027L2261 0L1958 0L1958 1413Q1489 1106 995 1106Q835 1106 693 1158Q551 1210 438.50 1311Q326 1412 263.50 1551.50Q201 1691 201 1860L201 3027Z"  horiz-adv-x="2568" vert-adv-y="4096"  />

      
      <glyph glyph-name="uni0427" unicode="&#x0427;" d="M201 3027L504 3027L504 1901Q504 1745 577 1629.50Q650 1514 777 1453.50Q904 1393 1057 1393Q1551 1393 1958 1704L1958 3027L2261 3027L2261 0L1958 0L1958 1413Q1489 1106 995 1106Q835 1106 693 1158Q551 1210 438.50 1311Q326 1412 263.50 1551.50Q201 1691 201 1860L201 3027Z"  horiz-adv-x="2568" vert-adv-y="4096"  />

      
      <glyph glyph-name="unid8" unicode="&#xd8;" d="M311 0L311 3027L614 3027L614 274L1737 274L1737 3027L2040 3027L2040 274L3162 274L3162 3027L3465 3027L3465 0L311 0Z"  horiz-adv-x="3777" vert-adv-y="4096"  />

      
      <glyph glyph-name="uni0428" unicode="&#x0428;" d="M311 0L311 3027L614 3027L614 274L1737 274L1737 3027L2040 3027L2040 274L3162 274L3162 3027L3465 3027L3465 0L311 0Z"  horiz-adv-x="3777" vert-adv-y="4096"  />

      
      <glyph glyph-name="unid9" unicode="&#xd9;" d="M311 0L311 3027L614 3027L614 274L1737 274L1737 3027L2040 3027L2040 274L3162 274L3162 3027L3465 3027L3465 274L3670 274L3670 0L311 0Z"  horiz-adv-x="3777" vert-adv-y="4096"  />

      
      <glyph glyph-name="uni0429" unicode="&#x0429;" d="M311 0L311 3027L614 3027L614 274L1737 274L1737 3027L2040 3027L2040 274L3162 274L3162 3027L3465 3027L3465 274L3670 274L3670 0L311 0Z"  horiz-adv-x="3777" vert-adv-y="4096"  />

      
      <glyph glyph-name="unida" unicode="&#xda;" d="M569 2753L29 2753L29 3027L872 3027L872 1806L1442 1806Q1692 1806 1881 1766.50Q2070 1727 2228 1610Q2572 1359 2572 909Q2572 678 2469 481Q2366 284 2175 164Q2060 91 1930.50 56Q1801 21 1669 11.50Q1537 2 1364 0L569 0L569 2753M1393 1532L872 1532L872 274L1262 274Q1294 274 1363 272Q1432 270 1466 270Q1726 270 1892 340Q2070 413 2169.50 561Q2269 709 2269 905Q2269 1058 2199 1194.50Q2129 1331 2003 1409Q1882 1486 1737.50 1509Q1593 1532 1393 1532Z"  horiz-adv-x="2683" vert-adv-y="4096"  />

      
      <glyph glyph-name="uni042A" unicode="&#x042A;" d="M569 2753L29 2753L29 3027L872 3027L872 1806L1442 1806Q1692 1806 1881 1766.50Q2070 1727 2228 1610Q2572 1359 2572 909Q2572 678 2469 481Q2366 284 2175 164Q2060 91 1930.50 56Q1801 21 1669 11.50Q1537 2 1364 0L569 0L569 2753M1393 1532L872 1532L872 274L1262 274Q1294 274 1363 272Q1432 270 1466 270Q1726 270 1892 340Q2070 413 2169.50 561Q2269 709 2269 905Q2269 1058 2199 1194.50Q2129 1331 2003 1409Q1882 1486 1737.50 1509Q1593 1532 1393 1532Z"  horiz-adv-x="2683" vert-adv-y="4096"  />

      
      <glyph glyph-name="unidb" unicode="&#xdb;" d="M311 0L311 3027L614 3027L614 1806L1184 1806Q1434 1806 1623 1766.50Q1812 1727 1970 1610Q2314 1359 2314 909Q2314 678 2211 481Q2108 284 1917 164Q1802 91 1672.50 56Q1543 21 1411 11.50Q1279 2 1106 0L311 0M2736 3027L3039 3027L3039 0L2736 0L2736 3027M1135 1532L614 1532L614 274L1004 274Q1036 274 1105 272Q1174 270 1208 270Q1468 270 1634 340Q1812 413 1911.50 561Q2011 709 2011 905Q2011 1058 1941 1194.50Q1871 1331 1745 1409Q1624 1486 1479.50 1509Q1335 1532 1135 1532Z"  horiz-adv-x="3351" vert-adv-y="4096"  />

      
      <glyph glyph-name="uni042B" unicode="&#x042B;" d="M311 0L311 3027L614 3027L614 1806L1184 1806Q1434 1806 1623 1766.50Q1812 1727 1970 1610Q2314 1359 2314 909Q2314 678 2211 481Q2108 284 1917 164Q1802 91 1672.50 56Q1543 21 1411 11.50Q1279 2 1106 0L311 0M2736 3027L3039 3027L3039 0L2736 0L2736 3027M1135 1532L614 1532L614 274L1004 274Q1036 274 1105 272Q1174 270 1208 270Q1468 270 1634 340Q1812 413 1911.50 561Q2011 709 2011 905Q2011 1058 1941 1194.50Q1871 1331 1745 1409Q1624 1486 1479.50 1509Q1335 1532 1135 1532Z"  horiz-adv-x="3351" vert-adv-y="4096"  />

      
      <glyph glyph-name="unidc" unicode="&#xdc;" d="M311 0L311 3027L614 3027L614 1806L1184 1806Q1434 1806 1623 1766.50Q1812 1727 1970 1610Q2314 1359 2314 909Q2314 678 2211 481Q2108 284 1917 164Q1802 91 1672.50 56Q1543 21 1411 11.50Q1279 2 1106 0L311 0M1135 1532L614 1532L614 274L1004 274Q1036 274 1105 272Q1174 270 1208 270Q1468 270 1634 340Q1812 413 1911.50 561Q2011 709 2011 905Q2011 1058 1941 1194.50Q1871 1331 1745 1409Q1624 1486 1479.50 1509Q1335 1532 1135 1532Z"  horiz-adv-x="2425" vert-adv-y="4096"  />

      
      <glyph glyph-name="uni042C" unicode="&#x042C;" d="M311 0L311 3027L614 3027L614 1806L1184 1806Q1434 1806 1623 1766.50Q1812 1727 1970 1610Q2314 1359 2314 909Q2314 678 2211 481Q2108 284 1917 164Q1802 91 1672.50 56Q1543 21 1411 11.50Q1279 2 1106 0L311 0M1135 1532L614 1532L614 274L1004 274Q1036 274 1105 272Q1174 270 1208 270Q1468 270 1634 340Q1812 413 1911.50 561Q2011 709 2011 905Q2011 1058 1941 1194.50Q1871 1331 1745 1409Q1624 1486 1479.50 1509Q1335 1532 1135 1532Z"  horiz-adv-x="2425" vert-adv-y="4096"  />

      
      <glyph glyph-name="unidd" unicode="&#xdd;" d="M2834 1696Q2789 1988 2609.50 2239Q2430 2490 2158 2637.50Q1886 2785 1581 2785Q1377 2785 1176.50 2722.50Q976 2660 805.50 2538.50Q635 2417 524 2249L188 2249Q245 2403 397 2560.50Q549 2718 713 2822Q1094 3076 1585 3076Q2008 3076 2368 2867.50Q2728 2659 2939 2302Q3150 1945 3150 1524Q3150 1197 3028.50 906Q2907 615 2688 400Q2469 185 2178.50 66Q1888-53 1561-53Q1348-53 1141.50 7.50Q935 68 754 179Q573 290 424.50 445.50Q276 601 176 791L512 791Q692 540 974 389Q1256 238 1561 238Q1882 238 2168 396Q2454 554 2635 826Q2816 1098 2843 1421L942 1421L942 1696L2834 1696Z"  horiz-adv-x="3330" vert-adv-y="4096"  />

      
      <glyph glyph-name="uni042D" unicode="&#x042D;" d="M2834 1696Q2789 1988 2609.50 2239Q2430 2490 2158 2637.50Q1886 2785 1581 2785Q1377 2785 1176.50 2722.50Q976 2660 805.50 2538.50Q635 2417 524 2249L188 2249Q245 2403 397 2560.50Q549 2718 713 2822Q1094 3076 1585 3076Q2008 3076 2368 2867.50Q2728 2659 2939 2302Q3150 1945 3150 1524Q3150 1197 3028.50 906Q2907 615 2688 400Q2469 185 2178.50 66Q1888-53 1561-53Q1348-53 1141.50 7.50Q935 68 754 179Q573 290 424.50 445.50Q276 601 176 791L512 791Q692 540 974 389Q1256 238 1561 238Q1882 238 2168 396Q2454 554 2635 826Q2816 1098 2843 1421L942 1421L942 1696L2834 1696Z"  horiz-adv-x="3330" vert-adv-y="4096"  />

      
      <glyph glyph-name="unide" unicode="&#xde;" d="M934 1421L614 1421L614 0L311 0L311 3027L614 3027L614 1696L946 1696Q983 1987 1119 2238Q1255 2489 1470.50 2677Q1686 2865 1958.50 2968.50Q2231 3072 2531 3072Q2953 3072 3323 2864.50Q3693 2657 3913 2300Q4133 1943 4133 1520Q4133 1092 3916.50 729Q3700 366 3330.50 156.50Q2961-53 2531-53Q2126-53 1765 142.50Q1404 338 1180 677Q956 1016 934 1421M2535 2785Q2186 2784 1886.50 2610.50Q1587 2437 1412 2141Q1237 1845 1237 1499Q1237 1157 1416.50 867Q1596 577 1896.50 407.50Q2197 238 2535 238Q2797 238 3035 337.50Q3273 437 3451.50 613Q3630 789 3730 1023Q3830 1257 3830 1520Q3830 1862 3652.50 2152Q3475 2442 3175 2611.50Q2875 2781 2535 2781L2535 2785Z"  horiz-adv-x="4313" vert-adv-y="4096"  />

      
      <glyph glyph-name="uni042E" unicode="&#x042E;" d="M934 1421L614 1421L614 0L311 0L311 3027L614 3027L614 1696L946 1696Q983 1987 1119 2238Q1255 2489 1470.50 2677Q1686 2865 1958.50 2968.50Q2231 3072 2531 3072Q2953 3072 3323 2864.50Q3693 2657 3913 2300Q4133 1943 4133 1520Q4133 1092 3916.50 729Q3700 366 3330.50 156.50Q2961-53 2531-53Q2126-53 1765 142.50Q1404 338 1180 677Q956 1016 934 1421M2535 2785Q2186 2784 1886.50 2610.50Q1587 2437 1412 2141Q1237 1845 1237 1499Q1237 1157 1416.50 867Q1596 577 1896.50 407.50Q2197 238 2535 238Q2797 238 3035 337.50Q3273 437 3451.50 613Q3630 789 3730 1023Q3830 1257 3830 1520Q3830 1862 3652.50 2152Q3475 2442 3175 2611.50Q2875 2781 2535 2781L2535 2785Z"  horiz-adv-x="4313" vert-adv-y="4096"  />

      
      <glyph glyph-name="unidf" unicode="&#xdf;" d="M2175 3027L2175 0L1872 0L1872 2753L1393 2753Q1153 2753 997.50 2729Q842 2705 709 2609Q579 2520 502.50 2372Q426 2224 426 2068Q426 1864 529.50 1702Q633 1540 819 1454Q950 1401 1104 1386.50Q1258 1372 1479 1372L1569 1372L541 0L164 0L1016 1130Q773 1136 567.50 1260Q362 1384 242.50 1590.50Q123 1797 123 2040Q123 2308 245 2528.50Q367 2749 594 2879Q764 2975 965.50 3001Q1167 3027 1454 3027L2175 3027Z"  horiz-adv-x="2486" vert-adv-y="4096"  />

      
      <glyph glyph-name="uni042F" unicode="&#x042F;" d="M2175 3027L2175 0L1872 0L1872 2753L1393 2753Q1153 2753 997.50 2729Q842 2705 709 2609Q579 2520 502.50 2372Q426 2224 426 2068Q426 1864 529.50 1702Q633 1540 819 1454Q950 1401 1104 1386.50Q1258 1372 1479 1372L1569 1372L541 0L164 0L1016 1130Q773 1136 567.50 1260Q362 1384 242.50 1590.50Q123 1797 123 2040Q123 2308 245 2528.50Q367 2749 594 2879Q764 2975 965.50 3001Q1167 3027 1454 3027L2175 3027Z"  horiz-adv-x="2486" vert-adv-y="4096"  />

      
      <glyph glyph-name="unie0" unicode="&#xe0;" d="M2540 0L2249 0L2249 422Q2165 268 2030 161.50Q1895 55 1725.50 1Q1556-53 1380-53Q1118-53 860 65.50Q602 184 393 422Q316 506 244 705.50Q172 905 172 1135Q172 1339 252.50 1544Q333 1749 406 1815Q848 2290 1372 2290Q1649 2290 1888.50 2167.50Q2128 2045 2249 1815L2249 2241L2540 2241L2540 0M475 1110Q475 872 600.50 670.50Q726 469 935 353.50Q1144 238 1380 238Q1609 238 1809.50 357Q2010 476 2129.50 676Q2249 876 2249 1106Q2249 1348 2134 1554.50Q2019 1761 1817 1880Q1615 1999 1372 1999Q1130 1999 924 1880.50Q718 1762 596.50 1557Q475 1352 475 1110Z"  horiz-adv-x="2798" vert-adv-y="4096"  />

      
      <glyph glyph-name="uni0430" unicode="&#x0430;" d="M2540 0L2249 0L2249 422Q2165 268 2030 161.50Q1895 55 1725.50 1Q1556-53 1380-53Q1118-53 860 65.50Q602 184 393 422Q316 506 244 705.50Q172 905 172 1135Q172 1339 252.50 1544Q333 1749 406 1815Q848 2290 1372 2290Q1649 2290 1888.50 2167.50Q2128 2045 2249 1815L2249 2241L2540 2241L2540 0M475 1110Q475 872 600.50 670.50Q726 469 935 353.50Q1144 238 1380 238Q1609 238 1809.50 357Q2010 476 2129.50 676Q2249 876 2249 1106Q2249 1348 2134 1554.50Q2019 1761 1817 1880Q1615 1999 1372 1999Q1130 1999 924 1880.50Q718 1762 596.50 1557Q475 1352 475 1110Z"  horiz-adv-x="2798" vert-adv-y="4096"  />

      
      <glyph glyph-name="unie1" unicode="&#xe1;" d="M623 2703Q766 2844 945.50 2925.50Q1125 3007 1308.50 3053.50Q1492 3100 1692 3155Q1892 3210 1987 3281Q2126 3387 2126 3465L2339 3314Q2339 3202 2183 3064Q2081 2973 1925.50 2913.50Q1770 2854 1509.50 2780Q1249 2706 1094 2643.50Q939 2581 840 2482Q708 2350 626 2188Q544 2026 516 1892Q644 2067 857.50 2178.50Q1071 2290 1360 2290Q1590 2290 1801 2199.50Q2012 2109 2175.50 1947Q2339 1785 2431 1574Q2523 1363 2523 1135Q2523 821 2367 546Q2211 271 1942.50 109Q1674-53 1360-53Q1049-53 777.50 102.50Q506 258 345 525.50Q184 793 184 1106Q184 1344 199 1550.50Q214 1757 261 1976Q308 2195 395 2379Q482 2563 623 2703M487 1106Q487 870 605 670.50Q723 471 924 354.50Q1125 238 1360 238Q1604 238 1801.50 359.50Q1999 481 2109.50 688Q2220 895 2220 1135Q2220 1503 1958 1753Q1835 1870 1680 1934.50Q1525 1999 1360 1999Q1119 1999 917.50 1878Q716 1757 601.50 1550.50Q487 1344 487 1106Z"  horiz-adv-x="2683" vert-adv-y="4096"  />

      
      <glyph glyph-name="uni0431" unicode="&#x0431;" d="M623 2703Q766 2844 945.50 2925.50Q1125 3007 1308.50 3053.50Q1492 3100 1692 3155Q1892 3210 1987 3281Q2126 3387 2126 3465L2339 3314Q2339 3202 2183 3064Q2081 2973 1925.50 2913.50Q1770 2854 1509.50 2780Q1249 2706 1094 2643.50Q939 2581 840 2482Q708 2350 626 2188Q544 2026 516 1892Q644 2067 857.50 2178.50Q1071 2290 1360 2290Q1590 2290 1801 2199.50Q2012 2109 2175.50 1947Q2339 1785 2431 1574Q2523 1363 2523 1135Q2523 821 2367 546Q2211 271 1942.50 109Q1674-53 1360-53Q1049-53 777.50 102.50Q506 258 345 525.50Q184 793 184 1106Q184 1344 199 1550.50Q214 1757 261 1976Q308 2195 395 2379Q482 2563 623 2703M487 1106Q487 870 605 670.50Q723 471 924 354.50Q1125 238 1360 238Q1604 238 1801.50 359.50Q1999 481 2109.50 688Q2220 895 2220 1135Q2220 1503 1958 1753Q1835 1870 1680 1934.50Q1525 1999 1360 1999Q1119 1999 917.50 1878Q716 1757 601.50 1550.50Q487 1344 487 1106Z"  horiz-adv-x="2683" vert-adv-y="4096"  />

      
      <glyph glyph-name="unie2" unicode="&#xe2;" d="M258 2241L807 2241Q1139 2241 1315 2126Q1443 2045 1516 1912.50Q1589 1780 1589 1626Q1589 1373 1389 1204Q1541 1125 1624.50 978Q1708 831 1708 651Q1708 489 1632.50 348.50Q1557 208 1421 123L1421 127Q1327 67 1230 40.50Q1133 14 1040.50 8Q948 2 807 0L258 0L258 2241M1221 336L1217 336Q1299 379 1352 467Q1405 555 1405 647Q1405 774 1342 867Q1279 960 1167 999Q1040 1040 745 1040L557 1040L557 279L782 279Q1102 279 1221 336M1139 1376Q1208 1413 1251 1488.50Q1294 1564 1294 1642Q1294 1717 1251 1792.50Q1208 1868 1143 1909L1143 1905Q1040 1962 770 1962L766 1962L557 1962L557 1319L750 1319Q1032 1319 1139 1376Z"  horiz-adv-x="1868" vert-adv-y="4096"  />

      
      <glyph glyph-name="uni0432" unicode="&#x0432;" d="M258 2241L807 2241Q1139 2241 1315 2126Q1443 2045 1516 1912.50Q1589 1780 1589 1626Q1589 1373 1389 1204Q1541 1125 1624.50 978Q1708 831 1708 651Q1708 489 1632.50 348.50Q1557 208 1421 123L1421 127Q1327 67 1230 40.50Q1133 14 1040.50 8Q948 2 807 0L258 0L258 2241M1221 336L1217 336Q1299 379 1352 467Q1405 555 1405 647Q1405 774 1342 867Q1279 960 1167 999Q1040 1040 745 1040L557 1040L557 279L782 279Q1102 279 1221 336M1139 1376Q1208 1413 1251 1488.50Q1294 1564 1294 1642Q1294 1717 1251 1792.50Q1208 1868 1143 1909L1143 1905Q1040 1962 770 1962L766 1962L557 1962L557 1319L750 1319Q1032 1319 1139 1376Z"  horiz-adv-x="1868" vert-adv-y="4096"  />

      
      <glyph glyph-name="unie3" unicode="&#xe3;" d="M262 2241L1659 2241L1659 1970L561 1970L561 0L262 0L262 2241Z"  horiz-adv-x="1769" vert-adv-y="4096"  />

      
      <glyph glyph-name="uni0433" unicode="&#x0433;" d="M262 2241L1659 2241L1659 1970L561 1970L561 0L262 0L262 2241Z"  horiz-adv-x="1769" vert-adv-y="4096"  />

      
      <glyph glyph-name="unie4" unicode="&#xe4;" d="M639 2241L1737 2241L1737 279L1884 279L1884 0L-41 0L-41 279L82 279L639 2241M1442 1962L864 1962Q857 1937 714.50 1423.50Q572 910 483.50 594.50Q395 279 393 279L1442 279L1442 1962Z"  horiz-adv-x="2015" vert-adv-y="4096"  />

      
      <glyph glyph-name="uni0434" unicode="&#x0434;" d="M639 2241L1737 2241L1737 279L1884 279L1884 0L-41 0L-41 279L82 279L639 2241M1442 1962L864 1962Q857 1937 714.50 1423.50Q572 910 483.50 594.50Q395 279 393 279L1442 279L1442 1962Z"  horiz-adv-x="2015" vert-adv-y="4096"  />

      
      <glyph glyph-name="unie5" unicode="&#xe5;" d="M475 1012Q484 806 606 627.50Q728 449 921 343.50Q1114 238 1319 238Q1487 238 1646.50 297.50Q1806 357 1931.50 469Q2057 581 2122 729L2437 729Q2359 506 2192 327.50Q2025 149 1803 48Q1581-53 1348-53Q1026-53 755.50 103Q485 259 328.50 527.50Q172 796 172 1118Q172 1437 328 1707.50Q484 1978 752 2134Q1020 2290 1339 2290Q1602 2290 1837 2175.50Q2072 2061 2241 1855Q2385 1676 2440.50 1477.50Q2496 1279 2503 1012L475 1012M2200 1286Q2161 1484 2036 1646.50Q1911 1809 1728.50 1904Q1546 1999 1343 1999Q1136 1999 949.50 1907.50Q763 1816 637.50 1652.50Q512 1489 475 1286L2200 1286Z"  horiz-adv-x="2662" vert-adv-y="4096"  />

      
      <glyph glyph-name="uni0435" unicode="&#x0435;" d="M475 1012Q484 806 606 627.50Q728 449 921 343.50Q1114 238 1319 238Q1487 238 1646.50 297.50Q1806 357 1931.50 469Q2057 581 2122 729L2437 729Q2359 506 2192 327.50Q2025 149 1803 48Q1581-53 1348-53Q1026-53 755.50 103Q485 259 328.50 527.50Q172 796 172 1118Q172 1437 328 1707.50Q484 1978 752 2134Q1020 2290 1339 2290Q1602 2290 1837 2175.50Q2072 2061 2241 1855Q2385 1676 2440.50 1477.50Q2496 1279 2503 1012L475 1012M2200 1286Q2161 1484 2036 1646.50Q1911 1809 1728.50 1904Q1546 1999 1343 1999Q1136 1999 949.50 1907.50Q763 1816 637.50 1652.50Q512 1489 475 1286L2200 1286Z"  horiz-adv-x="2662" vert-adv-y="4096"  />

      
      <glyph glyph-name="unie6" unicode="&#xe6;" d="M1561 1204Q1561 1205 1758.50 1464.50Q1956 1724 2110 1925.50Q2264 2127 2351 2241L2740 2241L1872 1118L2798 0L2408 0L1561 1020L1561 0L1257 0L1257 1020L410 0L20 0L946 1118L78 2241L467 2241Q554 2127 708 1925.50Q862 1724 1059.50 1464.50Q1257 1205 1257 1204L1257 2241L1561 2241L1561 1204Z"  horiz-adv-x="2818" vert-adv-y="4096"  />

      
      <glyph glyph-name="uni0436" unicode="&#x0436;" d="M1561 1204Q1561 1205 1758.50 1464.50Q1956 1724 2110 1925.50Q2264 2127 2351 2241L2740 2241L1872 1118L2798 0L2408 0L1561 1020L1561 0L1257 0L1257 1020L410 0L20 0L946 1118L78 2241L467 2241Q554 2127 708 1925.50Q862 1724 1059.50 1464.50Q1257 1205 1257 1204L1257 2241L1561 2241L1561 1204Z"  horiz-adv-x="2818" vert-adv-y="4096"  />

      
      <glyph glyph-name="unie7" unicode="&#xe7;" d="M459 1032L459 1315L762 1315Q926 1318 1030.50 1402.50Q1135 1487 1135 1651Q1135 1790 1039.50 1888.50Q944 1987 807 1987Q656 1987 559.50 1893Q463 1799 451 1647L446 1610L143 1610L143 1651Q143 1822 228.50 1966Q314 2110 460.50 2193.50Q607 2277 778 2277Q957 2277 1108 2197.50Q1259 2118 1346.50 1975.50Q1434 1833 1434 1655Q1434 1384 1241 1217Q1217 1197 1188 1180Q1229 1159 1274 1114Q1487 926 1487 635Q1487 450 1391.50 295.50Q1296 141 1135.50 52Q975-37 791-37Q597-37 434.50 50.50Q272 138 177 295Q82 452 82 647L82 688L393 688L393 647Q394 542 446 450Q498 358 588.50 304Q679 250 786 250Q956 250 1074 360Q1192 470 1192 635Q1192 801 1075 916.50Q958 1032 791 1032L459 1032Z"  horiz-adv-x="1589" vert-adv-y="4096"  />

      
      <glyph glyph-name="uni0437" unicode="&#x0437;" d="M459 1032L459 1315L762 1315Q926 1318 1030.50 1402.50Q1135 1487 1135 1651Q1135 1790 1039.50 1888.50Q944 1987 807 1987Q656 1987 559.50 1893Q463 1799 451 1647L446 1610L143 1610L143 1651Q143 1822 228.50 1966Q314 2110 460.50 2193.50Q607 2277 778 2277Q957 2277 1108 2197.50Q1259 2118 1346.50 1975.50Q1434 1833 1434 1655Q1434 1384 1241 1217Q1217 1197 1188 1180Q1229 1159 1274 1114Q1487 926 1487 635Q1487 450 1391.50 295.50Q1296 141 1135.50 52Q975-37 791-37Q597-37 434.50 50.50Q272 138 177 295Q82 452 82 647L82 688L393 688L393 647Q394 542 446 450Q498 358 588.50 304Q679 250 786 250Q956 250 1074 360Q1192 470 1192 635Q1192 801 1075 916.50Q958 1032 791 1032L459 1032Z"  horiz-adv-x="1589" vert-adv-y="4096"  />

      
      <glyph glyph-name="unie8" unicode="&#xe8;" d="M2236 2241L2236 0L1933 0L1933 1901L569 0L262 0L262 2241L565 2241L565 451L1835 2241L2236 2241Z"  horiz-adv-x="2499" vert-adv-y="4096"  />

      
      <glyph glyph-name="uni0438" unicode="&#x0438;" d="M2236 2241L2236 0L1933 0L1933 1901L569 0L262 0L262 2241L565 2241L565 451L1835 2241L2236 2241Z"  horiz-adv-x="2499" vert-adv-y="4096"  />

      
      <glyph glyph-name="unie9" unicode="&#xe9;" d="M2236 2241L2236 0L1933 0L1933 1901L569 0L262 0L262 2241L565 2241L565 451L1835 2241L2236 2241M885 2892Q929 2799 1033 2751Q1137 2703 1249 2703Q1362 2703 1466 2751Q1570 2799 1614 2892L1872 2892Q1819 2684 1647 2577Q1475 2470 1249 2470Q1024 2470 852 2577Q680 2684 627 2892L885 2892Z"  horiz-adv-x="2499" vert-adv-y="4096"  />

      
      <glyph glyph-name="uni0439" unicode="&#x0439;" d="M2236 2241L2236 0L1933 0L1933 1901L569 0L262 0L262 2241L565 2241L565 451L1835 2241L2236 2241M885 2892Q929 2799 1033 2751Q1137 2703 1249 2703Q1362 2703 1466 2751Q1570 2799 1614 2892L1872 2892Q1819 2684 1647 2577Q1475 2470 1249 2470Q1024 2470 852 2577Q680 2684 627 2892L885 2892Z"  horiz-adv-x="2499" vert-adv-y="4096"  />

      
      <glyph glyph-name="uniea" unicode="&#xea;" d="M258 2241L561 2241L561 901L1589 2241L1978 2241L1110 1118L2036 0L1647 0L918 885L561 426L561 0L258 0L258 2241Z"  horiz-adv-x="2056" vert-adv-y="4096"  />

      
      <glyph glyph-name="uni043A" unicode="&#x043A;" d="M258 2241L561 2241L561 901L1589 2241L1978 2241L1110 1118L2036 0L1647 0L918 885L561 426L561 0L258 0L258 2241Z"  horiz-adv-x="2056" vert-adv-y="4096"  />

      
      <glyph glyph-name="unieb" unicode="&#xeb;" d="M1737 2241L1737 0L1442 0L1442 1962L836 1962L291 0L-29 0L610 2241L1737 2241Z"  horiz-adv-x="2015" vert-adv-y="4096"  />

      
      <glyph glyph-name="uni043B" unicode="&#x043B;" d="M1737 2241L1737 0L1442 0L1442 1962L836 1962L291 0L-29 0L610 2241L1737 2241Z"  horiz-adv-x="2015" vert-adv-y="4096"  />

      
      <glyph glyph-name="uniec" unicode="&#xec;" d="M262 2241L705 2241Q812 2036 1075 1532.50Q1338 1029 1506.50 706Q1675 383 1675 381L2646 2241L3088 2241L3088 0L2785 0L2785 1909L1802 0L1548 0Q1486 119 1360.50 362Q1235 605 1021.50 1019Q808 1433 684.50 1673Q561 1913 561 1913L561 0L262 0L262 2241Z"  horiz-adv-x="3351" vert-adv-y="4096"  />

      
      <glyph glyph-name="uni043C" unicode="&#x043C;" d="M262 2241L705 2241Q812 2036 1075 1532.50Q1338 1029 1506.50 706Q1675 383 1675 381L2646 2241L3088 2241L3088 0L2785 0L2785 1909L1802 0L1548 0Q1486 119 1360.50 362Q1235 605 1021.50 1019Q808 1433 684.50 1673Q561 1913 561 1913L561 0L262 0L262 2241Z"  horiz-adv-x="3351" vert-adv-y="4096"  />

      
      <glyph glyph-name="unied" unicode="&#xed;" d="M258 2241L561 2241L561 1290L1843 1290L1843 2241L2146 2241L2146 0L1843 0L1843 1016L561 1016L561 0L258 0L258 2241Z"  horiz-adv-x="2408" vert-adv-y="4096"  />

      
      <glyph glyph-name="uni043D" unicode="&#x043D;" d="M258 2241L561 2241L561 1290L1843 1290L1843 2241L2146 2241L2146 0L1843 0L1843 1016L561 1016L561 0L258 0L258 2241Z"  horiz-adv-x="2408" vert-adv-y="4096"  />

      
      <glyph glyph-name="uniee" unicode="&#xee;" d="M2511 1135Q2511 821 2355 546Q2199 271 1930.50 109Q1662-53 1348-53Q1037-53 765.50 102.50Q494 258 333 525.50Q172 793 172 1106Q172 1426 328.50 1698.50Q485 1971 756 2130.50Q1027 2290 1348 2290Q1578 2290 1789 2199.50Q2000 2109 2163.50 1947Q2327 1785 2419 1574Q2511 1363 2511 1135M475 1106Q475 870 593.50 670Q712 470 912.50 354Q1113 238 1348 238Q1591 238 1788.50 359Q1986 480 2097 687.50Q2208 895 2208 1135Q2208 1503 1946 1753Q1823 1870 1668 1934.50Q1513 1999 1348 1999Q1107 1999 905.50 1878Q704 1757 589.50 1550.50Q475 1344 475 1106Z"  horiz-adv-x="2683" vert-adv-y="4096"  />

      
      <glyph glyph-name="uni043E" unicode="&#x043E;" d="M2511 1135Q2511 821 2355 546Q2199 271 1930.50 109Q1662-53 1348-53Q1037-53 765.50 102.50Q494 258 333 525.50Q172 793 172 1106Q172 1426 328.50 1698.50Q485 1971 756 2130.50Q1027 2290 1348 2290Q1578 2290 1789 2199.50Q2000 2109 2163.50 1947Q2327 1785 2419 1574Q2511 1363 2511 1135M475 1106Q475 870 593.50 670Q712 470 912.50 354Q1113 238 1348 238Q1591 238 1788.50 359Q1986 480 2097 687.50Q2208 895 2208 1135Q2208 1503 1946 1753Q1823 1870 1668 1934.50Q1513 1999 1348 1999Q1107 1999 905.50 1878Q704 1757 589.50 1550.50Q475 1344 475 1106Z"  horiz-adv-x="2683" vert-adv-y="4096"  />

      
      <glyph glyph-name="unief" unicode="&#xef;" d="M262 2241L2146 2241L2146 0L1843 0L1843 1966L561 1966L561 0L262 0L262 2241Z"  horiz-adv-x="2408" vert-adv-y="4096"  />

      
      <glyph glyph-name="uni043F" unicode="&#x043F;" d="M262 2241L2146 2241L2146 0L1843 0L1843 1966L561 1966L561 0L262 0L262 2241Z"  horiz-adv-x="2408" vert-adv-y="4096"  />

      
      </font>
</defs>
</svg>
